<svg xmlns="http://www.w3.org/2000/svg" xmlns:svg="http://www.w3.org/2000/svg" id="svg2" width="358.374" height="418.454" version="1.1" viewBox="0 0 358.374 418.454" xml:space="preserve"><metadata id="metadata8"/><g id="g10" transform="matrix(1.3333333,0,0,-1.3333333,-45.252878,470.85378)"><g id="g12" transform="matrix(0.06,0,0,-0.06,0,842)"><g id="g18"><g id="g22"><path style="fill:none;stroke:#000;stroke-width:12.5;stroke-linecap:round;stroke-linejoin:round;stroke-miterlimit:10;stroke-dasharray:none;stroke-opacity:1" id="path24" d="m 1464,12473 v -2 l -1,-2 v -2 l -1,-2 v -1 l -1,-2 -1,-2 -1,-2 -2,-1 -1,-2 -2,-1 -1,-1 -2,-1 -2,-1 -2,-1 h -2 -2 l -2,-1 h -2 -2 l -2,1 h -1 l -2,1 h -2 l -2,1 -2,1 -1,2 -2,1 -1,1 -1,2 -2,2 -1,1 v 2 l -1,2 -1,2 v 2 2 2 2 2 l 1,2 v 2 l 1,2 1,1 1,2 1,2 2,1 1,1 2,2 1,1 2,1 2,1 h 2 l 2,1 h 2 2 2 2 2 l 2,-1 h 1 l 2,-1 2,-1 2,-1 1,-1 2,-2 1,-1 1,-2 1,-2 1,-1 1,-2 1,-2 v -2 l 1,-2 v -2 z"/><path style="fill:none;stroke:#000;stroke-width:12.5;stroke-linecap:round;stroke-linejoin:round;stroke-miterlimit:10;stroke-dasharray:none;stroke-opacity:1" id="path26" d="m 1584,12473 v -2 l -1,-2 v -2 l -1,-2 v -1 l -1,-2 -1,-2 -1,-2 -2,-1 -1,-2 -2,-1 -1,-1 -2,-1 -2,-1 -2,-1 h -2 -2 l -2,-1 h -2 -2 l -2,1 h -1 l -2,1 h -2 l -2,1 -2,1 -1,2 -2,1 -1,1 -1,2 -2,2 -1,1 v 2 l -1,2 -1,2 v 2 2 2 2 2 l 1,2 v 2 l 1,2 1,1 1,2 1,2 2,1 1,1 2,2 1,1 2,1 2,1 h 2 l 2,1 h 2 2 2 2 2 l 2,-1 h 1 l 2,-1 2,-1 2,-1 1,-1 2,-2 1,-1 1,-2 1,-2 1,-1 1,-2 1,-2 v -2 l 1,-2 v -2 z"/><path style="fill:none;stroke:#000;stroke-width:12.5;stroke-linecap:round;stroke-linejoin:round;stroke-miterlimit:10;stroke-dasharray:none;stroke-opacity:1" id="path28" d="m 1704,12473 v -2 l -1,-2 v -2 l -1,-2 v -1 l -1,-2 -1,-2 -1,-2 -2,-1 -1,-2 -2,-1 -1,-1 -2,-1 -2,-1 -2,-1 h -2 -2 l -2,-1 h -2 -2 l -2,1 h -2 l -1,1 h -2 l -2,1 -2,1 -1,2 -2,1 -1,1 -2,2 -1,2 -1,1 v 2 l -1,2 -1,2 v 2 2 2 2 2 l 1,2 v 2 l 1,2 1,1 1,2 1,2 2,1 1,1 2,2 1,1 2,1 2,1 h 2 l 2,1 h 2 2 2 2 2 l 2,-1 h 1 l 2,-1 2,-1 2,-1 1,-1 2,-2 1,-1 1,-2 1,-2 1,-1 1,-2 1,-2 v -2 l 1,-2 v -2 z"/><path style="fill:none;stroke:#000;stroke-width:12.5;stroke-linecap:round;stroke-linejoin:round;stroke-miterlimit:10;stroke-dasharray:none;stroke-opacity:1" id="path30" d="m 1824,12473 v -2 l -1,-2 v -2 l -1,-2 v -1 l -1,-2 -1,-2 -1,-2 -2,-1 -1,-2 -2,-1 -1,-1 -2,-1 -2,-1 -2,-1 h -2 -2 l -2,-1 h -2 -2 l -2,1 h -2 l -1,1 h -2 l -2,1 -2,1 -1,2 -2,1 -1,1 -2,2 -1,2 -1,1 v 2 l -1,2 -1,2 v 2 2 2 2 2 l 1,2 v 2 l 1,2 1,1 1,2 1,2 2,1 1,1 2,2 1,1 2,1 2,1 h 2 l 2,1 h 2 2 2 2 2 l 2,-1 h 1 l 2,-1 2,-1 2,-1 1,-1 2,-2 1,-1 1,-2 1,-2 1,-1 1,-2 1,-2 v -2 l 1,-2 v -2 z"/><path style="fill:none;stroke:#000;stroke-width:12.5;stroke-linecap:round;stroke-linejoin:round;stroke-miterlimit:10;stroke-dasharray:none;stroke-opacity:1" id="path32" d="m 1944,12473 v -2 l -1,-2 v -2 l -1,-2 v -1 l -1,-2 -1,-2 -1,-2 -2,-1 -1,-2 -2,-1 -1,-1 -2,-1 -2,-1 -2,-1 h -2 -2 l -2,-1 h -2 -2 l -2,1 h -2 l -1,1 h -2 l -2,1 -2,1 -1,2 -2,1 -1,1 -2,2 -1,2 -1,1 v 2 l -1,2 -1,2 v 2 2 2 2 2 l 1,2 v 2 l 1,2 1,1 1,2 1,2 2,1 1,1 2,2 1,1 2,1 2,1 h 2 l 2,1 h 2 2 2 2 2 l 2,-1 h 1 l 2,-1 2,-1 2,-1 1,-1 2,-2 1,-1 1,-2 1,-2 1,-1 1,-2 1,-2 v -2 l 1,-2 v -2 z"/><path style="fill:none;stroke:#000;stroke-width:12.5;stroke-linecap:round;stroke-linejoin:round;stroke-miterlimit:10;stroke-dasharray:none;stroke-opacity:1" id="path34" d="m 2064,12473 v -2 l -1,-2 v -2 l -1,-2 v -1 l -1,-2 -1,-2 -1,-2 -2,-1 -1,-2 -2,-1 -1,-1 -2,-1 -2,-1 -2,-1 h -2 -2 l -2,-1 h -2 -2 l -2,1 h -2 l -1,1 h -2 l -2,1 -2,1 -1,2 -2,1 -1,1 -2,2 -1,2 -1,1 -1,2 v 2 l -1,2 v 2 2 2 2 2 l 1,2 v 2 l 1,2 1,1 1,2 1,2 2,1 1,1 2,2 1,1 2,1 2,1 h 2 l 2,1 h 2 2 2 2 2 l 1,-1 h 2 l 2,-1 2,-1 2,-1 1,-1 2,-2 1,-1 1,-2 1,-2 1,-1 1,-2 1,-2 v -2 l 1,-2 v -2 z"/><path style="fill:none;stroke:#000;stroke-width:12.5;stroke-linecap:round;stroke-linejoin:round;stroke-miterlimit:10;stroke-dasharray:none;stroke-opacity:1" id="path36" d="m 2184,12473 v -2 l -1,-2 v -2 l -1,-2 v -1 l -1,-2 -1,-2 -1,-2 -2,-1 -1,-2 -2,-1 -1,-1 -2,-1 -2,-1 -2,-1 h -2 -2 l -2,-1 h -2 -2 l -2,1 h -2 l -1,1 h -2 l -2,1 -2,1 -1,2 -2,1 -1,1 -2,2 -1,2 -1,1 -1,2 v 2 l -1,2 v 2 2 2 2 2 l 1,2 v 2 l 1,2 1,1 1,2 1,2 2,1 1,1 2,2 1,1 2,1 2,1 h 2 l 2,1 h 2 2 2 2 2 l 1,-1 h 2 l 2,-1 2,-1 2,-1 1,-1 2,-2 1,-1 1,-2 1,-2 1,-1 1,-2 1,-2 v -2 -2 l 1,-2 z"/><path style="fill:none;stroke:#000;stroke-width:12.5;stroke-linecap:round;stroke-linejoin:round;stroke-miterlimit:10;stroke-dasharray:none;stroke-opacity:1" id="path38" d="m 2304,12473 v -2 l -1,-2 v -2 l -1,-2 v -1 l -1,-2 -1,-2 -2,-2 -1,-1 -1,-2 -2,-1 -1,-1 -2,-1 -2,-1 -2,-1 h -2 -2 l -2,-1 h -2 -2 l -2,1 h -2 l -2,1 h -1 l -2,1 -2,1 -1,2 -2,1 -1,1 -2,2 -1,2 -1,1 -1,2 v 2 l -1,2 v 2 2 2 2 2 l 1,2 v 2 l 1,2 1,1 1,2 1,2 2,1 1,1 2,2 1,1 2,1 2,1 h 2 l 2,1 h 2 2 2 2 2 l 1,-1 h 2 l 2,-1 2,-1 2,-1 1,-1 2,-2 1,-1 1,-2 1,-2 1,-1 1,-2 1,-2 v -2 -2 l 1,-2 z"/><path style="fill:none;stroke:#000;stroke-width:12.5;stroke-linecap:round;stroke-linejoin:round;stroke-miterlimit:10;stroke-dasharray:none;stroke-opacity:1" id="path40" d="m 2424,12473 v -2 l -1,-2 v -2 l -1,-2 v -1 l -1,-2 -1,-2 -2,-2 -1,-1 -1,-2 -2,-1 -1,-1 -2,-1 -2,-1 -2,-1 h -2 -2 l -2,-1 h -2 -2 l -2,1 h -2 l -2,1 h -1 l -2,1 -2,1 -1,2 -2,1 -1,1 -2,2 -1,2 -1,1 -1,2 v 2 l -1,2 v 2 2 2 2 2 l 1,2 v 2 l 1,2 1,1 1,2 1,2 1,1 2,1 2,2 1,1 2,1 2,1 h 2 l 2,1 h 2 2 2 2 1 l 2,-1 h 2 l 2,-1 2,-1 2,-1 1,-1 2,-2 1,-1 1,-2 1,-2 1,-1 1,-2 1,-2 v -2 -2 l 1,-2 z"/><path style="fill:none;stroke:#000;stroke-width:12.5;stroke-linecap:round;stroke-linejoin:round;stroke-miterlimit:10;stroke-dasharray:none;stroke-opacity:1" id="path42" d="m 2544,12473 v -2 l -1,-2 v -2 l -1,-2 v -1 l -1,-2 -1,-2 -2,-2 -1,-1 -1,-2 -2,-1 -1,-1 -2,-1 -2,-1 -2,-1 h -2 -2 l -2,-1 h -2 -2 l -2,1 h -2 l -2,1 h -1 l -2,1 -2,1 -1,2 -2,1 -1,1 -2,2 -1,2 -1,1 -1,2 v 2 l -1,2 v 2 2 2 2 2 l 1,2 v 2 l 1,2 1,1 1,2 1,2 1,1 2,1 1,2 2,1 2,1 2,1 h 2 l 2,1 h 2 2 2 2 1 l 2,-1 h 2 l 2,-1 2,-1 2,-1 1,-1 2,-2 1,-1 1,-2 1,-2 1,-1 1,-2 1,-2 v -2 -2 l 1,-2 z"/><path style="fill:none;stroke:#000;stroke-width:12.5;stroke-linecap:round;stroke-linejoin:round;stroke-miterlimit:10;stroke-dasharray:none;stroke-opacity:1" id="path44" d="m 1464,12593 v -2 l -1,-2 v -2 l -1,-2 v -1 l -1,-2 -1,-2 -1,-2 -2,-1 -1,-2 -2,-1 -1,-1 -2,-1 -2,-1 -2,-1 h -2 -2 l -2,-1 h -2 -2 l -2,1 h -1 l -2,1 h -2 l -2,1 -2,1 -1,2 -2,1 -1,1 -1,2 -2,2 -1,1 v 2 l -1,2 -1,2 v 2 2 2 2 2 l 1,2 v 2 l 1,2 1,1 1,2 1,2 2,1 1,1 2,2 1,1 2,1 2,1 h 2 l 2,1 h 2 2 2 2 2 l 2,-1 h 1 l 2,-1 2,-1 2,-1 1,-1 2,-2 1,-1 1,-2 1,-2 1,-1 1,-2 1,-2 v -2 l 1,-2 v -2 z"/><path style="fill:none;stroke:#000;stroke-width:12.5;stroke-linecap:round;stroke-linejoin:round;stroke-miterlimit:10;stroke-dasharray:none;stroke-opacity:1" id="path46" d="m 1584,12593 v -2 l -1,-2 v -2 l -1,-2 v -1 l -1,-2 -1,-2 -1,-2 -2,-1 -1,-2 -2,-1 -1,-1 -2,-1 -2,-1 -2,-1 h -2 -2 l -2,-1 h -2 -2 l -2,1 h -1 l -2,1 h -2 l -2,1 -2,1 -1,2 -2,1 -1,1 -1,2 -2,2 -1,1 v 2 l -1,2 -1,2 v 2 2 2 2 2 l 1,2 v 2 l 1,2 1,1 1,2 1,2 2,1 1,1 2,2 1,1 2,1 2,1 h 2 l 2,1 h 2 2 2 2 2 l 2,-1 h 1 l 2,-1 2,-1 2,-1 1,-1 2,-2 1,-1 1,-2 1,-2 1,-1 1,-2 1,-2 v -2 l 1,-2 v -2 z"/><path style="fill:none;stroke:#000;stroke-width:12.5;stroke-linecap:round;stroke-linejoin:round;stroke-miterlimit:10;stroke-dasharray:none;stroke-opacity:1" id="path48" d="m 1704,12593 v -2 l -1,-2 v -2 l -1,-2 v -1 l -1,-2 -1,-2 -1,-2 -2,-1 -1,-2 -2,-1 -1,-1 -2,-1 -2,-1 -2,-1 h -2 -2 l -2,-1 h -2 -2 l -2,1 h -2 l -1,1 h -2 l -2,1 -2,1 -1,2 -2,1 -1,1 -2,2 -1,2 -1,1 v 2 l -1,2 -1,2 v 2 2 2 2 2 l 1,2 v 2 l 1,2 1,1 1,2 1,2 2,1 1,1 2,2 1,1 2,1 2,1 h 2 l 2,1 h 2 2 2 2 2 l 2,-1 h 1 l 2,-1 2,-1 2,-1 1,-1 2,-2 1,-1 1,-2 1,-2 1,-1 1,-2 1,-2 v -2 l 1,-2 v -2 z"/><path style="fill:none;stroke:#000;stroke-width:12.5;stroke-linecap:round;stroke-linejoin:round;stroke-miterlimit:10;stroke-dasharray:none;stroke-opacity:1" id="path50" d="m 1824,12593 v -2 l -1,-2 v -2 l -1,-2 v -1 l -1,-2 -1,-2 -1,-2 -2,-1 -1,-2 -2,-1 -1,-1 -2,-1 -2,-1 -2,-1 h -2 -2 l -2,-1 h -2 -2 l -2,1 h -2 l -1,1 h -2 l -2,1 -2,1 -1,2 -2,1 -1,1 -2,2 -1,2 -1,1 v 2 l -1,2 -1,2 v 2 2 2 2 2 l 1,2 v 2 l 1,2 1,1 1,2 1,2 2,1 1,1 2,2 1,1 2,1 2,1 h 2 l 2,1 h 2 2 2 2 2 l 2,-1 h 1 l 2,-1 2,-1 2,-1 1,-1 2,-2 1,-1 1,-2 1,-2 1,-1 1,-2 1,-2 v -2 l 1,-2 v -2 z"/><path style="fill:none;stroke:#000;stroke-width:12.5;stroke-linecap:round;stroke-linejoin:round;stroke-miterlimit:10;stroke-dasharray:none;stroke-opacity:1" id="path52" d="m 1944,12593 v -2 l -1,-2 v -2 l -1,-2 v -1 l -1,-2 -1,-2 -1,-2 -2,-1 -1,-2 -2,-1 -1,-1 -2,-1 -2,-1 -2,-1 h -2 -2 l -2,-1 h -2 -2 l -2,1 h -2 l -1,1 h -2 l -2,1 -2,1 -1,2 -2,1 -1,1 -2,2 -1,2 -1,1 v 2 l -1,2 -1,2 v 2 2 2 2 2 l 1,2 v 2 l 1,2 1,1 1,2 1,2 2,1 1,1 2,2 1,1 2,1 2,1 h 2 l 2,1 h 2 2 2 2 2 l 2,-1 h 1 l 2,-1 2,-1 2,-1 1,-1 2,-2 1,-1 1,-2 1,-2 1,-1 1,-2 1,-2 v -2 l 1,-2 v -2 z"/><path style="fill:none;stroke:#000;stroke-width:12.5;stroke-linecap:round;stroke-linejoin:round;stroke-miterlimit:10;stroke-dasharray:none;stroke-opacity:1" id="path54" d="m 2064,12593 v -2 l -1,-2 v -2 l -1,-2 v -1 l -1,-2 -1,-2 -1,-2 -2,-1 -1,-2 -2,-1 -1,-1 -2,-1 -2,-1 -2,-1 h -2 -2 l -2,-1 h -2 -2 l -2,1 h -2 l -1,1 h -2 l -2,1 -2,1 -1,2 -2,1 -1,1 -2,2 -1,2 -1,1 -1,2 v 2 l -1,2 v 2 2 2 2 2 l 1,2 v 2 l 1,2 1,1 1,2 1,2 2,1 1,1 2,2 1,1 2,1 2,1 h 2 l 2,1 h 2 2 2 2 2 l 1,-1 h 2 l 2,-1 2,-1 2,-1 1,-1 2,-2 1,-1 1,-2 1,-2 1,-1 1,-2 1,-2 v -2 l 1,-2 v -2 z"/><path style="fill:none;stroke:#000;stroke-width:12.5;stroke-linecap:round;stroke-linejoin:round;stroke-miterlimit:10;stroke-dasharray:none;stroke-opacity:1" id="path56" d="m 2184,12593 v -2 l -1,-2 v -2 l -1,-2 v -1 l -1,-2 -1,-2 -1,-2 -2,-1 -1,-2 -2,-1 -1,-1 -2,-1 -2,-1 -2,-1 h -2 -2 l -2,-1 h -2 -2 l -2,1 h -2 l -1,1 h -2 l -2,1 -2,1 -1,2 -2,1 -1,1 -2,2 -1,2 -1,1 -1,2 v 2 l -1,2 v 2 2 2 2 2 l 1,2 v 2 l 1,2 1,1 1,2 1,2 2,1 1,1 2,2 1,1 2,1 2,1 h 2 l 2,1 h 2 2 2 2 2 l 1,-1 h 2 l 2,-1 2,-1 2,-1 1,-1 2,-2 1,-1 1,-2 1,-2 1,-1 1,-2 1,-2 v -2 -2 l 1,-2 z"/><path style="fill:none;stroke:#000;stroke-width:12.5;stroke-linecap:round;stroke-linejoin:round;stroke-miterlimit:10;stroke-dasharray:none;stroke-opacity:1" id="path58" d="m 2304,12593 v -2 l -1,-2 v -2 l -1,-2 v -1 l -1,-2 -1,-2 -2,-2 -1,-1 -1,-2 -2,-1 -1,-1 -2,-1 -2,-1 -2,-1 h -2 -2 l -2,-1 h -2 -2 l -2,1 h -2 l -2,1 h -1 l -2,1 -2,1 -1,2 -2,1 -1,1 -2,2 -1,2 -1,1 -1,2 v 2 l -1,2 v 2 2 2 2 2 l 1,2 v 2 l 1,2 1,1 1,2 1,2 2,1 1,1 2,2 1,1 2,1 2,1 h 2 l 2,1 h 2 2 2 2 2 l 1,-1 h 2 l 2,-1 2,-1 2,-1 1,-1 2,-2 1,-1 1,-2 1,-2 1,-1 1,-2 1,-2 v -2 -2 l 1,-2 z"/><path style="fill:none;stroke:#000;stroke-width:12.5;stroke-linecap:round;stroke-linejoin:round;stroke-miterlimit:10;stroke-dasharray:none;stroke-opacity:1" id="path60" d="m 2424,12593 v -2 l -1,-2 v -2 l -1,-2 v -1 l -1,-2 -1,-2 -2,-2 -1,-1 -1,-2 -2,-1 -1,-1 -2,-1 -2,-1 -2,-1 h -2 -2 l -2,-1 h -2 -2 l -2,1 h -2 l -2,1 h -1 l -2,1 -2,1 -1,2 -2,1 -1,1 -2,2 -1,2 -1,1 -1,2 v 2 l -1,2 v 2 2 2 2 2 l 1,2 v 2 l 1,2 1,1 1,2 1,2 1,1 2,1 2,2 1,1 2,1 2,1 h 2 l 2,1 h 2 2 2 2 1 l 2,-1 h 2 l 2,-1 2,-1 2,-1 1,-1 2,-2 1,-1 1,-2 1,-2 1,-1 1,-2 1,-2 v -2 -2 l 1,-2 z"/><path style="fill:none;stroke:#000;stroke-width:12.5;stroke-linecap:round;stroke-linejoin:round;stroke-miterlimit:10;stroke-dasharray:none;stroke-opacity:1" id="path62" d="m 2544,12593 v -2 l -1,-2 v -2 l -1,-2 v -1 l -1,-2 -1,-2 -2,-2 -1,-1 -1,-2 -2,-1 -1,-1 -2,-1 -2,-1 -2,-1 h -2 -2 l -2,-1 h -2 -2 l -2,1 h -2 l -2,1 h -1 l -2,1 -2,1 -1,2 -2,1 -1,1 -2,2 -1,2 -1,1 -1,2 v 2 l -1,2 v 2 2 2 2 2 l 1,2 v 2 l 1,2 1,1 1,2 1,2 1,1 2,1 1,2 2,1 2,1 2,1 h 2 l 2,1 h 2 2 2 2 1 l 2,-1 h 2 l 2,-1 2,-1 2,-1 1,-1 2,-2 1,-1 1,-2 1,-2 1,-1 1,-2 1,-2 v -2 -2 l 1,-2 z"/><path style="fill:none;stroke:#000;stroke-width:12.5;stroke-linecap:round;stroke-linejoin:round;stroke-miterlimit:10;stroke-dasharray:none;stroke-opacity:1" id="path64" d="m 3743,12473 v -2 -2 -2 l -1,-2 -1,-1 -1,-2 -1,-2 -1,-2 -1,-1 -1,-2 -2,-1 -2,-1 -1,-1 -2,-1 -2,-1 h -2 -2 l -2,-1 h -2 -2 l -2,1 h -2 l -2,1 h -2 l -1,1 -2,1 -2,2 -1,1 -2,1 -1,2 -1,2 -1,1 -1,2 v 2 l -1,2 v 2 l -1,2 v 2 l 1,2 v 2 2 l 1,2 1,2 1,1 1,2 1,2 1,1 2,1 1,2 2,1 2,1 2,1 h 1 l 2,1 h 2 2 2 2 2 l 2,-1 h 2 l 2,-1 2,-1 1,-1 2,-1 1,-2 2,-1 1,-2 1,-2 1,-1 1,-2 v -2 l 1,-2 v -2 -2 z"/><path style="fill:none;stroke:#000;stroke-width:12.5;stroke-linecap:round;stroke-linejoin:round;stroke-miterlimit:10;stroke-dasharray:none;stroke-opacity:1" id="path66" d="m 3863,12473 v -2 -2 -2 l -1,-2 -1,-1 -1,-2 -1,-2 -1,-2 -1,-1 -1,-2 -2,-1 -2,-1 -1,-1 -2,-1 -2,-1 h -2 -2 l -2,-1 h -2 -2 l -2,1 h -2 l -2,1 h -2 l -1,1 -2,1 -2,2 -1,1 -2,1 -1,2 -1,2 -1,1 -1,2 v 2 l -1,2 v 2 l -1,2 v 2 l 1,2 v 2 2 l 1,2 1,2 1,1 1,2 1,2 1,1 2,1 1,2 2,1 2,1 2,1 h 1 l 2,1 h 2 2 2 2 2 l 2,-1 h 2 l 2,-1 2,-1 1,-1 2,-1 1,-2 2,-1 1,-2 1,-2 1,-1 1,-2 v -2 l 1,-2 v -2 -2 z"/><path style="fill:none;stroke:#000;stroke-width:12.5;stroke-linecap:round;stroke-linejoin:round;stroke-miterlimit:10;stroke-dasharray:none;stroke-opacity:1" id="path68" d="m 3983,12473 v -2 -2 -2 l -1,-2 -1,-1 -1,-2 -1,-2 -1,-2 -1,-1 -2,-2 -1,-1 -2,-1 -1,-1 -2,-1 -2,-1 h -2 -2 l -2,-1 h -2 -2 l -2,1 h -2 l -2,1 h -2 l -1,1 -2,1 -2,2 -1,1 -2,1 -1,2 -1,2 -1,1 -1,2 -1,2 v 2 2 l -1,2 v 2 l 1,2 v 2 2 l 1,2 1,2 1,1 1,2 1,2 1,1 2,1 1,2 2,1 2,1 1,1 h 2 l 2,1 h 2 2 2 2 2 l 2,-1 h 2 l 2,-1 2,-1 1,-1 2,-1 1,-2 2,-1 1,-2 1,-2 1,-1 1,-2 v -2 l 1,-2 v -2 -2 z"/><path style="fill:none;stroke:#000;stroke-width:12.5;stroke-linecap:round;stroke-linejoin:round;stroke-miterlimit:10;stroke-dasharray:none;stroke-opacity:1" id="path70" d="m 4103,12473 v -2 -2 -2 l -1,-2 -1,-1 -1,-2 -1,-2 -1,-2 -1,-1 -2,-2 -1,-1 -2,-1 -1,-1 -2,-1 -2,-1 h -2 -2 l -2,-1 h -2 -2 l -2,1 h -2 l -2,1 h -2 l -1,1 -2,1 -2,2 -1,1 -2,1 -1,2 -1,2 -1,1 -1,2 -1,2 v 2 2 l -1,2 v 2 2 l 1,2 v 2 l 1,2 1,2 1,1 1,2 1,2 1,1 2,1 1,2 2,1 2,1 1,1 h 2 l 2,1 h 2 2 2 2 2 l 2,-1 h 2 l 2,-1 2,-1 1,-1 2,-1 1,-2 2,-1 1,-2 1,-2 1,-1 1,-2 v -2 l 1,-2 v -2 -2 z"/><path style="fill:none;stroke:#000;stroke-width:12.5;stroke-linecap:round;stroke-linejoin:round;stroke-miterlimit:10;stroke-dasharray:none;stroke-opacity:1" id="path72" d="m 4223,12473 v -2 -2 -2 l -1,-2 -1,-1 -1,-2 -1,-2 -1,-2 -1,-1 -2,-2 -1,-1 -2,-1 -1,-1 -2,-1 -2,-1 h -2 -2 l -2,-1 h -2 -2 l -2,1 h -2 l -2,1 h -2 l -1,1 -2,1 -2,2 -1,1 -2,1 -1,2 -1,2 -1,1 -1,2 -1,2 v 2 2 l -1,2 v 2 2 l 1,2 v 2 l 1,2 1,2 1,1 1,2 1,2 1,1 2,1 1,2 2,1 2,1 1,1 h 2 l 2,1 h 2 2 2 2 2 l 2,-1 h 2 l 2,-1 2,-1 1,-1 2,-1 1,-2 2,-1 1,-2 1,-2 1,-1 1,-2 v -2 l 1,-2 v -2 -2 z"/><path style="fill:none;stroke:#000;stroke-width:12.5;stroke-linecap:round;stroke-linejoin:round;stroke-miterlimit:10;stroke-dasharray:none;stroke-opacity:1" id="path74" d="m 4343,12473 v -2 -2 -2 l -1,-2 -1,-1 -1,-2 -1,-2 -1,-2 -1,-1 -2,-2 -1,-1 -2,-1 -1,-1 -2,-1 -2,-1 h -2 -2 l -2,-1 h -2 -2 l -2,1 h -2 l -2,1 h -2 l -1,1 -2,1 -2,2 -1,1 -2,1 -1,2 -1,2 -1,1 -1,2 -1,2 v 2 2 l -1,2 v 2 2 l 1,2 v 2 l 1,2 1,2 1,1 1,2 1,2 1,1 2,1 1,2 2,1 2,1 1,1 h 2 l 2,1 h 2 2 2 2 2 l 2,-1 h 2 l 2,-1 2,-1 1,-1 2,-1 1,-2 2,-1 1,-2 1,-2 1,-1 1,-2 v -2 l 1,-2 v -2 -2 z"/><path style="fill:none;stroke:#000;stroke-width:12.5;stroke-linecap:round;stroke-linejoin:round;stroke-miterlimit:10;stroke-dasharray:none;stroke-opacity:1" id="path76" d="m 4463,12473 v -2 -2 -2 l -1,-2 -1,-1 -1,-2 -1,-2 -1,-2 -1,-1 -2,-2 -1,-1 -2,-1 -1,-1 -2,-1 -2,-1 h -2 -2 l -2,-1 h -2 -2 l -2,1 h -2 l -2,1 h -2 l -1,1 -2,1 -2,2 -1,1 -2,1 -1,2 -1,2 -1,1 -1,2 -1,2 v 2 2 l -1,2 v 2 2 l 1,2 v 2 l 1,2 1,2 1,1 1,2 1,2 1,1 2,1 1,2 2,1 2,1 1,1 h 2 l 2,1 h 2 2 2 2 2 l 2,-1 h 2 l 2,-1 2,-1 1,-1 2,-1 1,-2 2,-1 1,-2 1,-2 1,-1 1,-2 v -2 l 1,-2 v -2 -2 z"/><path style="fill:none;stroke:#000;stroke-width:12.5;stroke-linecap:round;stroke-linejoin:round;stroke-miterlimit:10;stroke-dasharray:none;stroke-opacity:1" id="path78" d="m 4583,12473 v -2 -2 -2 l -1,-2 -1,-1 -1,-2 -1,-2 -1,-2 -1,-1 -2,-2 -1,-1 -2,-1 -1,-1 -2,-1 -2,-1 h -2 -2 l -2,-1 h -2 -2 l -2,1 h -2 l -2,1 h -2 l -2,1 -1,1 -2,2 -1,1 -2,1 -1,2 -1,2 -1,1 -1,2 -1,2 v 2 2 l -1,2 v 2 2 l 1,2 v 2 l 1,2 1,2 1,1 1,2 1,2 1,1 2,1 1,2 2,1 2,1 1,1 h 2 l 2,1 h 2 2 2 2 2 l 2,-1 h 2 l 2,-1 2,-1 1,-1 2,-1 1,-2 2,-1 1,-2 1,-2 1,-1 1,-2 v -2 l 1,-2 v -2 -2 z"/><path style="fill:none;stroke:#000;stroke-width:12.5;stroke-linecap:round;stroke-linejoin:round;stroke-miterlimit:10;stroke-dasharray:none;stroke-opacity:1" id="path80" d="m 4703,12473 v -2 -2 l -1,-2 v -2 l -1,-1 -1,-2 -1,-2 -1,-2 -1,-1 -2,-2 -1,-1 -2,-1 -2,-1 -1,-1 -2,-1 h -2 -2 l -2,-1 h -2 -2 l -2,1 h -2 l -2,1 h -2 l -2,1 -1,1 -2,2 -1,1 -2,1 -1,2 -1,2 -1,1 -1,2 -1,2 v 2 l -1,2 v 2 2 2 l 1,2 v 2 l 1,2 1,2 v 1 l 2,2 1,2 1,1 2,1 1,2 2,1 2,1 1,1 h 2 l 2,1 h 2 2 2 2 2 l 2,-1 h 2 l 2,-1 2,-1 1,-1 2,-1 1,-2 2,-1 1,-2 1,-2 1,-1 1,-2 v -2 l 1,-2 v -2 -2 z"/><path style="fill:none;stroke:#000;stroke-width:12.5;stroke-linecap:round;stroke-linejoin:round;stroke-miterlimit:10;stroke-dasharray:none;stroke-opacity:1" id="path82" d="m 4823,12473 v -2 -2 l -1,-2 v -2 l -1,-1 -1,-2 -1,-2 -1,-2 -1,-1 -2,-2 -1,-1 -2,-1 -2,-1 -1,-1 -2,-1 h -2 -2 l -2,-1 h -2 -2 l -2,1 h -2 l -2,1 h -2 l -2,1 -1,1 -2,2 -1,1 -2,1 -1,2 -1,2 -1,1 -1,2 -1,2 v 2 l -1,2 v 2 2 2 l 1,2 v 2 l 1,2 1,2 v 1 l 2,2 1,2 1,1 2,1 1,2 2,1 2,1 1,1 h 2 l 2,1 h 2 2 2 2 2 l 2,-1 h 2 l 2,-1 2,-1 1,-1 2,-1 1,-2 2,-1 1,-2 1,-2 1,-1 1,-2 v -2 l 1,-2 v -2 -2 z"/><path style="fill:none;stroke:#000;stroke-width:12.5;stroke-linecap:round;stroke-linejoin:round;stroke-miterlimit:10;stroke-dasharray:none;stroke-opacity:1" id="path84" d="m 3743,12593 v -2 -2 -2 l -1,-2 -1,-1 -1,-2 -1,-2 -1,-2 -1,-1 -1,-2 -2,-1 -2,-1 -1,-1 -2,-1 -2,-1 h -2 -2 l -2,-1 h -2 -2 l -2,1 h -2 l -2,1 h -2 l -1,1 -2,1 -2,2 -1,1 -2,1 -1,2 -1,2 -1,1 -1,2 v 2 l -1,2 v 2 l -1,2 v 2 l 1,2 v 2 2 l 1,2 1,2 1,1 1,2 1,2 1,1 2,1 1,2 2,1 2,1 2,1 h 1 l 2,1 h 2 2 2 2 2 l 2,-1 h 2 l 2,-1 2,-1 1,-1 2,-1 1,-2 2,-1 1,-2 1,-2 1,-1 1,-2 v -2 l 1,-2 v -2 -2 z"/><path style="fill:none;stroke:#000;stroke-width:12.5;stroke-linecap:round;stroke-linejoin:round;stroke-miterlimit:10;stroke-dasharray:none;stroke-opacity:1" id="path86" d="m 3863,12593 v -2 -2 -2 l -1,-2 -1,-1 -1,-2 -1,-2 -1,-2 -1,-1 -1,-2 -2,-1 -2,-1 -1,-1 -2,-1 -2,-1 h -2 -2 l -2,-1 h -2 -2 l -2,1 h -2 l -2,1 h -2 l -1,1 -2,1 -2,2 -1,1 -2,1 -1,2 -1,2 -1,1 -1,2 v 2 l -1,2 v 2 l -1,2 v 2 l 1,2 v 2 2 l 1,2 1,2 1,1 1,2 1,2 1,1 2,1 1,2 2,1 2,1 2,1 h 1 l 2,1 h 2 2 2 2 2 l 2,-1 h 2 l 2,-1 2,-1 1,-1 2,-1 1,-2 2,-1 1,-2 1,-2 1,-1 1,-2 v -2 l 1,-2 v -2 -2 z"/><path style="fill:none;stroke:#000;stroke-width:12.5;stroke-linecap:round;stroke-linejoin:round;stroke-miterlimit:10;stroke-dasharray:none;stroke-opacity:1" id="path88" d="m 3983,12593 v -2 -2 -2 l -1,-2 -1,-1 -1,-2 -1,-2 -1,-2 -1,-1 -2,-2 -1,-1 -2,-1 -1,-1 -2,-1 -2,-1 h -2 -2 l -2,-1 h -2 -2 l -2,1 h -2 l -2,1 h -2 l -1,1 -2,1 -2,2 -1,1 -2,1 -1,2 -1,2 -1,1 -1,2 -1,2 v 2 2 l -1,2 v 2 l 1,2 v 2 2 l 1,2 1,2 1,1 1,2 1,2 1,1 2,1 1,2 2,1 2,1 1,1 h 2 l 2,1 h 2 2 2 2 2 l 2,-1 h 2 l 2,-1 2,-1 1,-1 2,-1 1,-2 2,-1 1,-2 1,-2 1,-1 1,-2 v -2 l 1,-2 v -2 -2 z"/><path style="fill:none;stroke:#000;stroke-width:12.5;stroke-linecap:round;stroke-linejoin:round;stroke-miterlimit:10;stroke-dasharray:none;stroke-opacity:1" id="path90" d="m 4103,12593 v -2 -2 -2 l -1,-2 -1,-1 -1,-2 -1,-2 -1,-2 -1,-1 -2,-2 -1,-1 -2,-1 -1,-1 -2,-1 -2,-1 h -2 -2 l -2,-1 h -2 -2 l -2,1 h -2 l -2,1 h -2 l -1,1 -2,1 -2,2 -1,1 -2,1 -1,2 -1,2 -1,1 -1,2 -1,2 v 2 2 l -1,2 v 2 2 l 1,2 v 2 l 1,2 1,2 1,1 1,2 1,2 1,1 2,1 1,2 2,1 2,1 1,1 h 2 l 2,1 h 2 2 2 2 2 l 2,-1 h 2 l 2,-1 2,-1 1,-1 2,-1 1,-2 2,-1 1,-2 1,-2 1,-1 1,-2 v -2 l 1,-2 v -2 -2 z"/><path style="fill:none;stroke:#000;stroke-width:12.5;stroke-linecap:round;stroke-linejoin:round;stroke-miterlimit:10;stroke-dasharray:none;stroke-opacity:1" id="path92" d="m 4223,12593 v -2 -2 -2 l -1,-2 -1,-1 -1,-2 -1,-2 -1,-2 -1,-1 -2,-2 -1,-1 -2,-1 -1,-1 -2,-1 -2,-1 h -2 -2 l -2,-1 h -2 -2 l -2,1 h -2 l -2,1 h -2 l -1,1 -2,1 -2,2 -1,1 -2,1 -1,2 -1,2 -1,1 -1,2 -1,2 v 2 2 l -1,2 v 2 2 l 1,2 v 2 l 1,2 1,2 1,1 1,2 1,2 1,1 2,1 1,2 2,1 2,1 1,1 h 2 l 2,1 h 2 2 2 2 2 l 2,-1 h 2 l 2,-1 2,-1 1,-1 2,-1 1,-2 2,-1 1,-2 1,-2 1,-1 1,-2 v -2 l 1,-2 v -2 -2 z"/><path style="fill:none;stroke:#000;stroke-width:12.5;stroke-linecap:round;stroke-linejoin:round;stroke-miterlimit:10;stroke-dasharray:none;stroke-opacity:1" id="path94" d="m 4343,12593 v -2 -2 -2 l -1,-2 -1,-1 -1,-2 -1,-2 -1,-2 -1,-1 -2,-2 -1,-1 -2,-1 -1,-1 -2,-1 -2,-1 h -2 -2 l -2,-1 h -2 -2 l -2,1 h -2 l -2,1 h -2 l -1,1 -2,1 -2,2 -1,1 -2,1 -1,2 -1,2 -1,1 -1,2 -1,2 v 2 2 l -1,2 v 2 2 l 1,2 v 2 l 1,2 1,2 1,1 1,2 1,2 1,1 2,1 1,2 2,1 2,1 1,1 h 2 l 2,1 h 2 2 2 2 2 l 2,-1 h 2 l 2,-1 2,-1 1,-1 2,-1 1,-2 2,-1 1,-2 1,-2 1,-1 1,-2 v -2 l 1,-2 v -2 -2 z"/><path style="fill:none;stroke:#000;stroke-width:12.5;stroke-linecap:round;stroke-linejoin:round;stroke-miterlimit:10;stroke-dasharray:none;stroke-opacity:1" id="path96" d="m 4463,12593 v -2 -2 -2 l -1,-2 -1,-1 -1,-2 -1,-2 -1,-2 -1,-1 -2,-2 -1,-1 -2,-1 -1,-1 -2,-1 -2,-1 h -2 -2 l -2,-1 h -2 -2 l -2,1 h -2 l -2,1 h -2 l -1,1 -2,1 -2,2 -1,1 -2,1 -1,2 -1,2 -1,1 -1,2 -1,2 v 2 2 l -1,2 v 2 2 l 1,2 v 2 l 1,2 1,2 1,1 1,2 1,2 1,1 2,1 1,2 2,1 2,1 1,1 h 2 l 2,1 h 2 2 2 2 2 l 2,-1 h 2 l 2,-1 2,-1 1,-1 2,-1 1,-2 2,-1 1,-2 1,-2 1,-1 1,-2 v -2 l 1,-2 v -2 -2 z"/><path style="fill:none;stroke:#000;stroke-width:12.5;stroke-linecap:round;stroke-linejoin:round;stroke-miterlimit:10;stroke-dasharray:none;stroke-opacity:1" id="path98" d="m 4583,12593 v -2 -2 -2 l -1,-2 -1,-1 -1,-2 -1,-2 -1,-2 -1,-1 -2,-2 -1,-1 -2,-1 -1,-1 -2,-1 -2,-1 h -2 -2 l -2,-1 h -2 -2 l -2,1 h -2 l -2,1 h -2 l -2,1 -1,1 -2,2 -1,1 -2,1 -1,2 -1,2 -1,1 -1,2 -1,2 v 2 2 l -1,2 v 2 2 l 1,2 v 2 l 1,2 1,2 1,1 1,2 1,2 1,1 2,1 1,2 2,1 2,1 1,1 h 2 l 2,1 h 2 2 2 2 2 l 2,-1 h 2 l 2,-1 2,-1 1,-1 2,-1 1,-2 2,-1 1,-2 1,-2 1,-1 1,-2 v -2 l 1,-2 v -2 -2 z"/><path style="fill:none;stroke:#000;stroke-width:12.5;stroke-linecap:round;stroke-linejoin:round;stroke-miterlimit:10;stroke-dasharray:none;stroke-opacity:1" id="path100" d="m 4703,12593 v -2 -2 l -1,-2 v -2 l -1,-1 -1,-2 -1,-2 -1,-2 -1,-1 -2,-2 -1,-1 -2,-1 -2,-1 -1,-1 -2,-1 h -2 -2 l -2,-1 h -2 -2 l -2,1 h -2 l -2,1 h -2 l -2,1 -1,1 -2,2 -1,1 -2,1 -1,2 -1,2 -1,1 -1,2 -1,2 v 2 l -1,2 v 2 2 2 l 1,2 v 2 l 1,2 1,2 v 1 l 2,2 1,2 1,1 2,1 1,2 2,1 2,1 1,1 h 2 l 2,1 h 2 2 2 2 2 l 2,-1 h 2 l 2,-1 2,-1 1,-1 2,-1 1,-2 2,-1 1,-2 1,-2 1,-1 1,-2 v -2 l 1,-2 v -2 -2 z"/><path style="fill:none;stroke:#000;stroke-width:12.5;stroke-linecap:round;stroke-linejoin:round;stroke-miterlimit:10;stroke-dasharray:none;stroke-opacity:1" id="path102" d="m 4823,12593 v -2 -2 l -1,-2 v -2 l -1,-1 -1,-2 -1,-2 -1,-2 -1,-1 -2,-2 -1,-1 -2,-1 -2,-1 -1,-1 -2,-1 h -2 -2 l -2,-1 h -2 -2 l -2,1 h -2 l -2,1 h -2 l -2,1 -1,1 -2,2 -1,1 -2,1 -1,2 -1,2 -1,1 -1,2 -1,2 v 2 l -1,2 v 2 2 2 l 1,2 v 2 l 1,2 1,2 v 1 l 2,2 1,2 1,1 2,1 1,2 2,1 2,1 1,1 h 2 l 2,1 h 2 2 2 2 2 l 2,-1 h 2 l 2,-1 2,-1 1,-1 2,-1 1,-2 2,-1 1,-2 1,-2 1,-1 1,-2 v -2 l 1,-2 v -2 -2 z"/><path style="fill:none;stroke:#000;stroke-width:12.5;stroke-linecap:round;stroke-linejoin:round;stroke-miterlimit:10;stroke-dasharray:none;stroke-opacity:1" id="path104" d="m 1464,8754 v -2 l -1,-2 v -2 l -1,-2 v -2 l -1,-2 -1,-1 -1,-2 -2,-2 -1,-1 -2,-1 -1,-1 -2,-1 -2,-1 -2,-1 h -2 l -2,-1 h -2 -2 -2 -2 l -1,1 h -2 l -2,1 -2,1 -2,1 -1,1 -2,2 -1,1 -1,1 -2,2 -1,2 v 2 l -1,2 -1,2 v 1 2 2 2 2 l 1,2 v 2 l 1,2 1,2 1,2 1,1 2,2 1,1 2,1 1,1 2,1 2,1 2,1 h 2 l 2,1 h 2 2 2 l 2,-1 h 2 l 1,-1 2,-1 2,-1 2,-1 1,-1 2,-1 1,-2 1,-1 1,-2 1,-2 1,-2 1,-1 v -2 l 1,-2 v -2 z"/><path style="fill:none;stroke:#000;stroke-width:12.5;stroke-linecap:round;stroke-linejoin:round;stroke-miterlimit:10;stroke-dasharray:none;stroke-opacity:1" id="path106" d="m 1584,8754 v -2 l -1,-2 v -2 l -1,-2 v -2 l -1,-2 -1,-1 -1,-2 -2,-2 -1,-1 -2,-1 -1,-1 -2,-1 -2,-1 -2,-1 h -2 l -2,-1 h -2 -2 -2 -2 l -1,1 h -2 l -2,1 -2,1 -2,1 -1,1 -2,2 -1,1 -1,1 -2,2 -1,2 v 2 l -1,2 -1,2 v 1 2 2 2 2 l 1,2 v 2 l 1,2 1,2 1,2 1,1 2,2 1,1 2,1 1,1 2,1 2,1 2,1 h 2 l 2,1 h 2 2 2 l 2,-1 h 2 l 1,-1 2,-1 2,-1 2,-1 1,-1 2,-1 1,-2 1,-1 1,-2 1,-2 1,-2 1,-1 v -2 l 1,-2 v -2 z"/><path style="fill:none;stroke:#000;stroke-width:12.5;stroke-linecap:round;stroke-linejoin:round;stroke-miterlimit:10;stroke-dasharray:none;stroke-opacity:1" id="path108" d="m 1704,8754 v -2 l -1,-2 v -2 l -1,-2 v -2 l -1,-2 -1,-1 -1,-2 -2,-2 -1,-1 -2,-1 -1,-1 -2,-1 -2,-1 -2,-1 h -2 l -2,-1 h -2 -2 -2 -2 l -2,1 h -1 l -2,1 -2,1 -2,1 -1,1 -2,2 -1,1 -2,1 -1,2 -1,2 v 2 l -1,2 -1,2 v 1 2 2 2 2 l 1,2 v 2 l 1,2 1,2 1,2 1,1 2,2 1,1 2,1 1,1 2,1 2,1 2,1 h 2 l 2,1 h 2 2 2 l 2,-1 h 2 l 1,-1 2,-1 2,-1 2,-1 1,-1 2,-1 1,-2 1,-1 1,-2 1,-2 1,-2 1,-1 v -2 l 1,-2 v -2 z"/><path style="fill:none;stroke:#000;stroke-width:12.5;stroke-linecap:round;stroke-linejoin:round;stroke-miterlimit:10;stroke-dasharray:none;stroke-opacity:1" id="path110" d="m 1824,8754 v -2 l -1,-2 v -2 l -1,-2 v -2 l -1,-2 -1,-1 -1,-2 -2,-2 -1,-1 -2,-1 -1,-1 -2,-1 -2,-1 -2,-1 h -2 l -2,-1 h -2 -2 -2 -2 l -2,1 h -1 l -2,1 -2,1 -2,1 -1,1 -2,2 -1,1 -2,1 -1,2 -1,2 v 2 l -1,2 -1,2 v 1 2 2 2 2 l 1,2 v 2 l 1,2 1,2 1,2 1,1 2,2 1,1 2,1 1,1 2,1 2,1 2,1 h 2 l 2,1 h 2 2 2 l 2,-1 h 2 l 1,-1 2,-1 2,-1 2,-1 1,-1 2,-1 1,-2 1,-1 1,-2 1,-2 1,-2 1,-1 v -2 l 1,-2 v -2 z"/><path style="fill:none;stroke:#000;stroke-width:12.5;stroke-linecap:round;stroke-linejoin:round;stroke-miterlimit:10;stroke-dasharray:none;stroke-opacity:1" id="path112" d="m 1944,8754 v -2 l -1,-2 v -2 l -1,-2 v -2 l -1,-2 -1,-1 -1,-2 -2,-2 -1,-1 -2,-1 -1,-1 -2,-1 -2,-1 -2,-1 h -2 l -2,-1 h -2 -2 -2 -2 l -2,1 h -1 l -2,1 -2,1 -2,1 -1,1 -2,2 -1,1 -2,1 -1,2 -1,2 v 2 l -1,2 -1,2 v 1 2 2 2 2 l 1,2 v 2 l 1,2 1,2 1,2 1,1 2,2 1,1 2,1 1,1 2,1 2,1 2,1 h 2 l 2,1 h 2 2 2 l 2,-1 h 2 l 1,-1 2,-1 2,-1 2,-1 1,-1 2,-1 1,-2 1,-1 1,-2 1,-2 1,-2 1,-1 v -2 l 1,-2 v -2 z"/><path style="fill:none;stroke:#000;stroke-width:12.5;stroke-linecap:round;stroke-linejoin:round;stroke-miterlimit:10;stroke-dasharray:none;stroke-opacity:1" id="path114" d="m 2064,8754 v -2 l -1,-2 v -2 l -1,-2 v -2 l -1,-2 -1,-1 -1,-2 -2,-2 -1,-1 -2,-1 -1,-1 -2,-1 -2,-1 -2,-1 h -2 l -2,-1 h -2 -2 -2 -2 l -2,1 h -1 l -2,1 -2,1 -2,1 -1,1 -2,2 -1,1 -2,1 -1,2 -1,2 -1,2 v 2 l -1,2 v 1 2 2 2 2 l 1,2 v 2 l 1,2 1,2 1,2 1,1 2,2 1,1 2,1 1,1 2,1 2,1 2,1 h 2 l 2,1 h 2 2 2 l 2,-1 h 1 l 2,-1 2,-1 2,-1 2,-1 1,-1 2,-1 1,-2 1,-1 1,-2 1,-2 1,-2 1,-1 v -2 l 1,-2 v -2 z"/><path style="fill:none;stroke:#000;stroke-width:12.5;stroke-linecap:round;stroke-linejoin:round;stroke-miterlimit:10;stroke-dasharray:none;stroke-opacity:1" id="path116" d="m 2184,8754 v -2 l -1,-2 v -2 l -1,-2 v -2 l -1,-2 -1,-1 -1,-2 -2,-2 -1,-1 -2,-1 -1,-1 -2,-1 -2,-1 -2,-1 h -2 l -2,-1 h -2 -2 -2 -2 l -2,1 h -1 l -2,1 -2,1 -2,1 -1,1 -2,2 -1,1 -2,1 -1,2 -1,2 -1,2 v 2 l -1,2 v 1 2 2 2 2 l 1,2 v 2 l 1,2 1,2 1,2 1,1 2,2 1,1 2,1 1,1 2,1 2,1 2,1 h 2 l 2,1 h 2 2 2 l 2,-1 h 1 l 2,-1 2,-1 2,-1 2,-1 1,-1 2,-1 1,-2 1,-1 1,-2 1,-2 1,-2 1,-1 v -2 -2 l 1,-2 z"/><path style="fill:none;stroke:#000;stroke-width:12.5;stroke-linecap:round;stroke-linejoin:round;stroke-miterlimit:10;stroke-dasharray:none;stroke-opacity:1" id="path118" d="m 2304,8754 v -2 l -1,-2 v -2 l -1,-2 v -2 l -1,-2 -1,-1 -2,-2 -1,-2 -1,-1 -2,-1 -1,-1 -2,-1 -2,-1 -2,-1 h -2 l -2,-1 h -2 -2 -2 -2 l -2,1 h -2 l -1,1 -2,1 -2,1 -1,1 -2,2 -1,1 -2,1 -1,2 -1,2 -1,2 v 2 l -1,2 v 1 2 2 2 2 l 1,2 v 2 l 1,2 1,2 1,2 1,1 2,2 1,1 2,1 1,1 2,1 2,1 2,1 h 2 l 2,1 h 2 2 2 l 2,-1 h 1 l 2,-1 2,-1 2,-1 2,-1 1,-1 2,-1 1,-2 1,-1 1,-2 1,-2 1,-2 1,-1 v -2 -2 l 1,-2 z"/><path style="fill:none;stroke:#000;stroke-width:12.5;stroke-linecap:round;stroke-linejoin:round;stroke-miterlimit:10;stroke-dasharray:none;stroke-opacity:1" id="path120" d="m 2424,8754 v -2 l -1,-2 v -2 l -1,-2 v -2 l -1,-2 -1,-1 -2,-2 -1,-2 -1,-1 -2,-1 -1,-1 -2,-1 -2,-1 -2,-1 h -2 l -2,-1 h -2 -2 -2 -2 l -2,1 h -2 l -1,1 -2,1 -2,1 -1,1 -2,2 -1,1 -2,1 -1,2 -1,2 -1,2 v 2 l -1,2 v 1 2 2 2 2 l 1,2 v 2 l 1,2 1,2 1,2 1,1 1,2 2,1 2,1 1,1 2,1 2,1 2,1 h 2 l 2,1 h 2 2 2 l 1,-1 h 2 l 2,-1 2,-1 2,-1 2,-1 1,-1 2,-1 1,-2 1,-1 1,-2 1,-2 1,-2 1,-1 v -2 -2 l 1,-2 z"/><path style="fill:none;stroke:#000;stroke-width:12.5;stroke-linecap:round;stroke-linejoin:round;stroke-miterlimit:10;stroke-dasharray:none;stroke-opacity:1" id="path122" d="m 2544,8754 v -2 l -1,-2 v -2 l -1,-2 v -2 l -1,-2 -1,-1 -2,-2 -1,-2 -1,-1 -2,-1 -1,-1 -2,-1 -2,-1 -2,-1 h -2 l -2,-1 h -2 -2 -2 -2 l -2,1 h -2 l -1,1 -2,1 -2,1 -1,1 -2,2 -1,1 -2,1 -1,2 -1,2 -1,2 v 2 l -1,2 v 1 2 2 2 2 l 1,2 v 2 l 1,2 1,2 1,2 1,1 1,2 2,1 1,1 2,1 2,1 2,1 2,1 h 2 l 2,1 h 2 2 2 l 1,-1 h 2 l 2,-1 2,-1 2,-1 2,-1 1,-1 2,-1 1,-2 1,-1 1,-2 1,-2 1,-2 1,-1 v -2 -2 l 1,-2 z"/><path style="fill:none;stroke:#000;stroke-width:12.5;stroke-linecap:round;stroke-linejoin:round;stroke-miterlimit:10;stroke-dasharray:none;stroke-opacity:1" id="path124" d="m 1464,8874 v -2 l -1,-2 v -2 l -1,-2 v -2 l -1,-2 -1,-1 -1,-2 -2,-2 -1,-1 -2,-1 -1,-1 -2,-1 -2,-1 -2,-1 h -2 l -2,-1 h -2 -2 -2 -2 l -1,1 h -2 l -2,1 -2,1 -2,1 -1,1 -2,1 -1,2 -1,1 -2,2 -1,2 v 2 l -1,2 -1,1 v 2 2 2 2 2 l 1,2 v 2 l 1,2 1,2 1,2 1,1 2,2 1,1 2,1 1,1 2,1 2,1 2,1 h 2 l 2,1 h 2 2 2 l 2,-1 h 2 l 1,-1 2,-1 2,-1 2,-1 1,-1 2,-1 1,-2 1,-1 1,-2 1,-2 1,-2 1,-1 v -2 l 1,-2 v -2 z"/><path style="fill:none;stroke:#000;stroke-width:12.5;stroke-linecap:round;stroke-linejoin:round;stroke-miterlimit:10;stroke-dasharray:none;stroke-opacity:1" id="path126" d="m 1584,8874 v -2 l -1,-2 v -2 l -1,-2 v -2 l -1,-2 -1,-1 -1,-2 -2,-2 -1,-1 -2,-1 -1,-1 -2,-1 -2,-1 -2,-1 h -2 l -2,-1 h -2 -2 -2 -2 l -1,1 h -2 l -2,1 -2,1 -2,1 -1,1 -2,1 -1,2 -1,1 -2,2 -1,2 v 2 l -1,2 -1,1 v 2 2 2 2 2 l 1,2 v 2 l 1,2 1,2 1,2 1,1 2,2 1,1 2,1 1,1 2,1 2,1 2,1 h 2 l 2,1 h 2 2 2 l 2,-1 h 2 l 1,-1 2,-1 2,-1 2,-1 1,-1 2,-1 1,-2 1,-1 1,-2 1,-2 1,-2 1,-1 v -2 l 1,-2 v -2 z"/><path style="fill:none;stroke:#000;stroke-width:12.5;stroke-linecap:round;stroke-linejoin:round;stroke-miterlimit:10;stroke-dasharray:none;stroke-opacity:1" id="path128" d="m 1704,8874 v -2 l -1,-2 v -2 l -1,-2 v -2 l -1,-2 -1,-1 -1,-2 -2,-2 -1,-1 -2,-1 -1,-1 -2,-1 -2,-1 -2,-1 h -2 l -2,-1 h -2 -2 -2 -2 l -2,1 h -1 l -2,1 -2,1 -2,1 -1,1 -2,1 -1,2 -2,1 -1,2 -1,2 v 2 l -1,2 -1,1 v 2 2 2 2 2 l 1,2 v 2 l 1,2 1,2 1,2 1,1 2,2 1,1 2,1 1,1 2,1 2,1 2,1 h 2 l 2,1 h 2 2 2 l 2,-1 h 2 l 1,-1 2,-1 2,-1 2,-1 1,-1 2,-1 1,-2 1,-1 1,-2 1,-2 1,-2 1,-1 v -2 l 1,-2 v -2 z"/><path style="fill:none;stroke:#000;stroke-width:12.5;stroke-linecap:round;stroke-linejoin:round;stroke-miterlimit:10;stroke-dasharray:none;stroke-opacity:1" id="path130" d="m 1824,8874 v -2 l -1,-2 v -2 l -1,-2 v -2 l -1,-2 -1,-1 -1,-2 -2,-2 -1,-1 -2,-1 -1,-1 -2,-1 -2,-1 -2,-1 h -2 l -2,-1 h -2 -2 -2 -2 l -2,1 h -1 l -2,1 -2,1 -2,1 -1,1 -2,1 -1,2 -2,1 -1,2 -1,2 v 2 l -1,2 -1,1 v 2 2 2 2 2 l 1,2 v 2 l 1,2 1,2 1,2 1,1 2,2 1,1 2,1 1,1 2,1 2,1 2,1 h 2 l 2,1 h 2 2 2 l 2,-1 h 2 l 1,-1 2,-1 2,-1 2,-1 1,-1 2,-1 1,-2 1,-1 1,-2 1,-2 1,-2 1,-1 v -2 l 1,-2 v -2 z"/><path style="fill:none;stroke:#000;stroke-width:12.5;stroke-linecap:round;stroke-linejoin:round;stroke-miterlimit:10;stroke-dasharray:none;stroke-opacity:1" id="path132" d="m 1944,8874 v -2 l -1,-2 v -2 l -1,-2 v -2 l -1,-2 -1,-1 -1,-2 -2,-2 -1,-1 -2,-1 -1,-1 -2,-1 -2,-1 -2,-1 h -2 l -2,-1 h -2 -2 -2 -2 l -2,1 h -1 l -2,1 -2,1 -2,1 -1,1 -2,1 -1,2 -2,1 -1,2 -1,2 v 2 l -1,2 -1,1 v 2 2 2 2 2 l 1,2 v 2 l 1,2 1,2 1,2 1,1 2,2 1,1 2,1 1,1 2,1 2,1 2,1 h 2 l 2,1 h 2 2 2 l 2,-1 h 2 l 1,-1 2,-1 2,-1 2,-1 1,-1 2,-1 1,-2 1,-1 1,-2 1,-2 1,-2 1,-1 v -2 l 1,-2 v -2 z"/><path style="fill:none;stroke:#000;stroke-width:12.5;stroke-linecap:round;stroke-linejoin:round;stroke-miterlimit:10;stroke-dasharray:none;stroke-opacity:1" id="path134" d="m 2064,8874 v -2 l -1,-2 v -2 l -1,-2 v -2 l -1,-2 -1,-1 -1,-2 -2,-2 -1,-1 -2,-1 -1,-1 -2,-1 -2,-1 -2,-1 h -2 l -2,-1 h -2 -2 -2 -2 l -2,1 h -1 l -2,1 -2,1 -2,1 -1,1 -2,1 -1,2 -2,1 -1,2 -1,2 -1,2 v 2 l -1,1 v 2 2 2 2 2 l 1,2 v 2 l 1,2 1,2 1,2 1,1 2,2 1,1 2,1 1,1 2,1 2,1 2,1 h 2 l 2,1 h 2 2 2 l 2,-1 h 1 l 2,-1 2,-1 2,-1 2,-1 1,-1 2,-1 1,-2 1,-1 1,-2 1,-2 1,-2 1,-1 v -2 l 1,-2 v -2 z"/><path style="fill:none;stroke:#000;stroke-width:12.5;stroke-linecap:round;stroke-linejoin:round;stroke-miterlimit:10;stroke-dasharray:none;stroke-opacity:1" id="path136" d="m 2184,8874 v -2 l -1,-2 v -2 l -1,-2 v -2 l -1,-2 -1,-1 -1,-2 -2,-2 -1,-1 -2,-1 -1,-1 -2,-1 -2,-1 -2,-1 h -2 l -2,-1 h -2 -2 -2 -2 l -2,1 h -1 l -2,1 -2,1 -2,1 -1,1 -2,1 -1,2 -2,1 -1,2 -1,2 -1,2 v 2 l -1,1 v 2 2 2 2 2 l 1,2 v 2 l 1,2 1,2 1,2 1,1 2,2 1,1 2,1 1,1 2,1 2,1 2,1 h 2 l 2,1 h 2 2 2 l 2,-1 h 1 l 2,-1 2,-1 2,-1 2,-1 1,-1 2,-1 1,-2 1,-1 1,-2 1,-2 1,-2 1,-1 v -2 -2 l 1,-2 z"/><path style="fill:none;stroke:#000;stroke-width:12.5;stroke-linecap:round;stroke-linejoin:round;stroke-miterlimit:10;stroke-dasharray:none;stroke-opacity:1" id="path138" d="m 2304,8874 v -2 l -1,-2 v -2 l -1,-2 v -2 l -1,-2 -1,-1 -2,-2 -1,-2 -1,-1 -2,-1 -1,-1 -2,-1 -2,-1 -2,-1 h -2 l -2,-1 h -2 -2 -2 -2 l -2,1 h -2 l -1,1 -2,1 -2,1 -1,1 -2,1 -1,2 -2,1 -1,2 -1,2 -1,2 v 2 l -1,1 v 2 2 2 2 2 l 1,2 v 2 l 1,2 1,2 1,2 1,1 2,2 1,1 2,1 1,1 2,1 2,1 2,1 h 2 l 2,1 h 2 2 2 l 2,-1 h 1 l 2,-1 2,-1 2,-1 2,-1 1,-1 2,-1 1,-2 1,-1 1,-2 1,-2 1,-2 1,-1 v -2 -2 l 1,-2 z"/><path style="fill:none;stroke:#000;stroke-width:12.5;stroke-linecap:round;stroke-linejoin:round;stroke-miterlimit:10;stroke-dasharray:none;stroke-opacity:1" id="path140" d="m 2424,8874 v -2 l -1,-2 v -2 l -1,-2 v -2 l -1,-2 -1,-1 -2,-2 -1,-2 -1,-1 -2,-1 -1,-1 -2,-1 -2,-1 -2,-1 h -2 l -2,-1 h -2 -2 -2 -2 l -2,1 h -2 l -1,1 -2,1 -2,1 -1,1 -2,1 -1,2 -2,1 -1,2 -1,2 -1,2 v 2 l -1,1 v 2 2 2 2 2 l 1,2 v 2 l 1,2 1,2 1,2 1,1 1,2 2,1 2,1 1,1 2,1 2,1 2,1 h 2 l 2,1 h 2 2 2 l 1,-1 h 2 l 2,-1 2,-1 2,-1 2,-1 1,-1 2,-1 1,-2 1,-1 1,-2 1,-2 1,-2 1,-1 v -2 -2 l 1,-2 z"/><path style="fill:none;stroke:#000;stroke-width:12.5;stroke-linecap:round;stroke-linejoin:round;stroke-miterlimit:10;stroke-dasharray:none;stroke-opacity:1" id="path142" d="m 2544,8874 v -2 l -1,-2 v -2 l -1,-2 v -2 l -1,-2 -1,-1 -2,-2 -1,-2 -1,-1 -2,-1 -1,-1 -2,-1 -2,-1 -2,-1 h -2 l -2,-1 h -2 -2 -2 -2 l -2,1 h -2 l -1,1 -2,1 -2,1 -1,1 -2,1 -1,2 -2,1 -1,2 -1,2 -1,2 v 2 l -1,1 v 2 2 2 2 2 l 1,2 v 2 l 1,2 1,2 1,2 1,1 1,2 2,1 1,1 2,1 2,1 2,1 2,1 h 2 l 2,1 h 2 2 2 l 1,-1 h 2 l 2,-1 2,-1 2,-1 2,-1 1,-1 2,-1 1,-2 1,-1 1,-2 1,-2 1,-2 1,-1 v -2 -2 l 1,-2 z"/><path style="fill:none;stroke:#000;stroke-width:12.5;stroke-linecap:round;stroke-linejoin:round;stroke-miterlimit:10;stroke-dasharray:none;stroke-opacity:1" id="path144" d="m 3743,8754 v -2 -2 -2 l -1,-2 -1,-2 -1,-2 -1,-1 -1,-2 -1,-2 -1,-1 -2,-1 -2,-1 -1,-1 -2,-1 -2,-1 h -2 l -2,-1 h -2 -2 -2 -2 l -2,1 h -2 l -2,1 -1,1 -2,1 -2,1 -1,2 -2,1 -1,1 -1,2 -1,2 -1,2 v 2 l -1,2 v 1 l -1,2 v 2 l 1,2 v 2 2 l 1,2 1,2 1,2 1,2 1,1 1,2 2,1 1,1 2,1 2,1 2,1 1,1 h 2 l 2,1 h 2 2 2 l 2,-1 h 2 l 2,-1 2,-1 2,-1 1,-1 2,-1 1,-1 2,-2 1,-1 1,-2 1,-2 1,-2 v -1 l 1,-2 v -2 -2 z"/><path style="fill:none;stroke:#000;stroke-width:12.5;stroke-linecap:round;stroke-linejoin:round;stroke-miterlimit:10;stroke-dasharray:none;stroke-opacity:1" id="path146" d="m 3863,8754 v -2 -2 -2 l -1,-2 -1,-2 -1,-2 -1,-1 -1,-2 -1,-2 -1,-1 -2,-1 -2,-1 -1,-1 -2,-1 -2,-1 h -2 l -2,-1 h -2 -2 -2 -2 l -2,1 h -2 l -2,1 -1,1 -2,1 -2,1 -1,2 -2,1 -1,1 -1,2 -1,2 -1,2 v 2 l -1,2 v 1 l -1,2 v 2 l 1,2 v 2 2 l 1,2 1,2 1,2 1,2 1,1 1,2 2,1 1,1 2,1 2,1 2,1 1,1 h 2 l 2,1 h 2 2 2 l 2,-1 h 2 l 2,-1 2,-1 2,-1 1,-1 2,-1 1,-1 2,-2 1,-1 1,-2 1,-2 1,-2 v -1 l 1,-2 v -2 -2 z"/><path style="fill:none;stroke:#000;stroke-width:12.5;stroke-linecap:round;stroke-linejoin:round;stroke-miterlimit:10;stroke-dasharray:none;stroke-opacity:1" id="path148" d="m 3983,8754 v -2 -2 -2 l -1,-2 -1,-2 -1,-2 -1,-1 -1,-2 -1,-2 -2,-1 -1,-1 -2,-1 -1,-1 -2,-1 -2,-1 h -2 l -2,-1 h -2 -2 -2 -2 l -2,1 h -2 l -2,1 -1,1 -2,1 -2,1 -1,2 -2,1 -1,1 -1,2 -1,2 -1,2 -1,2 v 2 1 l -1,2 v 2 l 1,2 v 2 2 l 1,2 1,2 1,2 1,2 1,1 1,2 2,1 1,1 2,1 2,1 1,1 2,1 h 2 l 2,1 h 2 2 2 l 2,-1 h 2 l 2,-1 2,-1 2,-1 1,-1 2,-1 1,-1 2,-2 1,-1 1,-2 1,-2 1,-2 v -1 l 1,-2 v -2 -2 z"/><path style="fill:none;stroke:#000;stroke-width:12.5;stroke-linecap:round;stroke-linejoin:round;stroke-miterlimit:10;stroke-dasharray:none;stroke-opacity:1" id="path150" d="m 4103,8754 v -2 -2 -2 l -1,-2 -1,-2 -1,-2 -1,-1 -1,-2 -1,-2 -2,-1 -1,-1 -2,-1 -1,-1 -2,-1 -2,-1 h -2 l -2,-1 h -2 -2 -2 -2 l -2,1 h -2 l -2,1 -1,1 -2,1 -2,1 -1,2 -2,1 -1,1 -1,2 -1,2 -1,2 -1,2 v 2 1 l -1,2 v 2 2 l 1,2 v 2 l 1,2 1,2 1,2 1,2 1,1 1,2 2,1 1,1 2,1 2,1 1,1 2,1 h 2 l 2,1 h 2 2 2 l 2,-1 h 2 l 2,-1 2,-1 2,-1 1,-1 2,-1 1,-1 2,-2 1,-1 1,-2 1,-2 1,-2 v -1 l 1,-2 v -2 -2 z"/><path style="fill:none;stroke:#000;stroke-width:12.5;stroke-linecap:round;stroke-linejoin:round;stroke-miterlimit:10;stroke-dasharray:none;stroke-opacity:1" id="path152" d="m 4223,8754 v -2 -2 -2 l -1,-2 -1,-2 -1,-2 -1,-1 -1,-2 -1,-2 -2,-1 -1,-1 -2,-1 -1,-1 -2,-1 -2,-1 h -2 l -2,-1 h -2 -2 -2 -2 l -2,1 h -2 l -2,1 -1,1 -2,1 -2,1 -1,2 -2,1 -1,1 -1,2 -1,2 -1,2 -1,2 v 2 1 l -1,2 v 2 2 l 1,2 v 2 l 1,2 1,2 1,2 1,2 1,1 1,2 2,1 1,1 2,1 2,1 1,1 2,1 h 2 l 2,1 h 2 2 2 l 2,-1 h 2 l 2,-1 2,-1 2,-1 1,-1 2,-1 1,-1 2,-2 1,-1 1,-2 1,-2 1,-2 v -1 l 1,-2 v -2 -2 z"/><path style="fill:none;stroke:#000;stroke-width:12.5;stroke-linecap:round;stroke-linejoin:round;stroke-miterlimit:10;stroke-dasharray:none;stroke-opacity:1" id="path154" d="m 4343,8754 v -2 -2 -2 l -1,-2 -1,-2 -1,-2 -1,-1 -1,-2 -1,-2 -2,-1 -1,-1 -2,-1 -1,-1 -2,-1 -2,-1 h -2 l -2,-1 h -2 -2 -2 -2 l -2,1 h -2 l -2,1 -1,1 -2,1 -2,1 -1,2 -2,1 -1,1 -1,2 -1,2 -1,2 -1,2 v 2 1 l -1,2 v 2 2 l 1,2 v 2 l 1,2 1,2 1,2 1,2 1,1 1,2 2,1 1,1 2,1 2,1 1,1 2,1 h 2 l 2,1 h 2 2 2 l 2,-1 h 2 l 2,-1 2,-1 2,-1 1,-1 2,-1 1,-1 2,-2 1,-1 1,-2 1,-2 1,-2 v -1 l 1,-2 v -2 -2 z"/><path style="fill:none;stroke:#000;stroke-width:12.5;stroke-linecap:round;stroke-linejoin:round;stroke-miterlimit:10;stroke-dasharray:none;stroke-opacity:1" id="path156" d="m 4463,8754 v -2 -2 -2 l -1,-2 -1,-2 -1,-2 -1,-1 -1,-2 -1,-2 -2,-1 -1,-1 -2,-1 -1,-1 -2,-1 -2,-1 h -2 l -2,-1 h -2 -2 -2 -2 l -2,1 h -2 l -2,1 -1,1 -2,1 -2,1 -1,2 -2,1 -1,1 -1,2 -1,2 -1,2 -1,2 v 2 1 l -1,2 v 2 2 l 1,2 v 2 l 1,2 1,2 1,2 1,2 1,1 1,2 2,1 1,1 2,1 2,1 1,1 2,1 h 2 l 2,1 h 2 2 2 l 2,-1 h 2 l 2,-1 2,-1 2,-1 1,-1 2,-1 1,-1 2,-2 1,-1 1,-2 1,-2 1,-2 v -1 l 1,-2 v -2 -2 z"/><path style="fill:none;stroke:#000;stroke-width:12.5;stroke-linecap:round;stroke-linejoin:round;stroke-miterlimit:10;stroke-dasharray:none;stroke-opacity:1" id="path158" d="m 4583,8754 v -2 -2 -2 l -1,-2 -1,-2 -1,-2 -1,-1 -1,-2 -1,-2 -2,-1 -1,-1 -2,-1 -1,-1 -2,-1 -2,-1 h -2 l -2,-1 h -2 -2 -2 -2 l -2,1 h -2 l -2,1 -2,1 -1,1 -2,1 -1,2 -2,1 -1,1 -1,2 -1,2 -1,2 -1,2 v 2 1 l -1,2 v 2 2 l 1,2 v 2 l 1,2 1,2 1,2 1,2 1,1 1,2 2,1 1,1 2,1 2,1 1,1 2,1 h 2 l 2,1 h 2 2 2 l 2,-1 h 2 l 2,-1 2,-1 2,-1 1,-1 2,-1 1,-1 2,-2 1,-1 1,-2 1,-2 1,-2 v -1 l 1,-2 v -2 -2 z"/><path style="fill:none;stroke:#000;stroke-width:12.5;stroke-linecap:round;stroke-linejoin:round;stroke-miterlimit:10;stroke-dasharray:none;stroke-opacity:1" id="path160" d="m 4703,8754 v -2 -2 l -1,-2 v -2 l -1,-2 -1,-2 -1,-1 -1,-2 -1,-2 -2,-1 -1,-1 -2,-1 -2,-1 -1,-1 -2,-1 h -2 l -2,-1 h -2 -2 -2 -2 l -2,1 h -2 l -2,1 -2,1 -1,1 -2,1 -1,2 -2,1 -1,1 -1,2 -1,2 -1,2 -1,2 v 2 l -1,1 v 2 2 2 l 1,2 v 2 l 1,2 1,2 v 2 l 2,2 1,1 1,2 2,1 1,1 2,1 2,1 1,1 2,1 h 2 l 2,1 h 2 2 2 l 2,-1 h 2 l 2,-1 2,-1 2,-1 1,-1 2,-1 1,-1 2,-2 1,-1 1,-2 1,-2 1,-2 v -1 l 1,-2 v -2 -2 z"/><path style="fill:none;stroke:#000;stroke-width:12.5;stroke-linecap:round;stroke-linejoin:round;stroke-miterlimit:10;stroke-dasharray:none;stroke-opacity:1" id="path162" d="m 4823,8754 v -2 -2 l -1,-2 v -2 l -1,-2 -1,-2 -1,-1 -1,-2 -1,-2 -2,-1 -1,-1 -2,-1 -2,-1 -1,-1 -2,-1 h -2 l -2,-1 h -2 -2 -2 -2 l -2,1 h -2 l -2,1 -2,1 -1,1 -2,1 -1,2 -2,1 -1,1 -1,2 -1,2 -1,2 -1,2 v 2 l -1,1 v 2 2 2 l 1,2 v 2 l 1,2 1,2 v 2 l 2,2 1,1 1,2 2,1 1,1 2,1 2,1 1,1 2,1 h 2 l 2,1 h 2 2 2 l 2,-1 h 2 l 2,-1 2,-1 2,-1 1,-1 2,-1 1,-1 2,-2 1,-1 1,-2 1,-2 1,-2 v -1 l 1,-2 v -2 -2 z"/><path style="fill:none;stroke:#000;stroke-width:12.5;stroke-linecap:round;stroke-linejoin:round;stroke-miterlimit:10;stroke-dasharray:none;stroke-opacity:1" id="path164" d="m 3743,8874 v -2 -2 -2 l -1,-2 -1,-2 -1,-2 -1,-1 -1,-2 -1,-2 -1,-1 -2,-1 -2,-1 -1,-1 -2,-1 -2,-1 h -2 l -2,-1 h -2 -2 -2 -2 l -2,1 h -2 l -2,1 -1,1 -2,1 -2,1 -1,1 -2,2 -1,1 -1,2 -1,2 -1,2 v 2 l -1,1 v 2 l -1,2 v 2 l 1,2 v 2 2 l 1,2 1,2 1,2 1,2 1,1 1,2 2,1 1,1 2,1 2,1 2,1 1,1 h 2 l 2,1 h 2 2 2 l 2,-1 h 2 l 2,-1 2,-1 2,-1 1,-1 2,-1 1,-1 2,-2 1,-1 1,-2 1,-2 1,-2 v -1 l 1,-2 v -2 -2 z"/><path style="fill:none;stroke:#000;stroke-width:12.5;stroke-linecap:round;stroke-linejoin:round;stroke-miterlimit:10;stroke-dasharray:none;stroke-opacity:1" id="path166" d="m 3863,8874 v -2 -2 -2 l -1,-2 -1,-2 -1,-2 -1,-1 -1,-2 -1,-2 -1,-1 -2,-1 -2,-1 -1,-1 -2,-1 -2,-1 h -2 l -2,-1 h -2 -2 -2 -2 l -2,1 h -2 l -2,1 -1,1 -2,1 -2,1 -1,1 -2,2 -1,1 -1,2 -1,2 -1,2 v 2 l -1,1 v 2 l -1,2 v 2 l 1,2 v 2 2 l 1,2 1,2 1,2 1,2 1,1 1,2 2,1 1,1 2,1 2,1 2,1 1,1 h 2 l 2,1 h 2 2 2 l 2,-1 h 2 l 2,-1 2,-1 2,-1 1,-1 2,-1 1,-1 2,-2 1,-1 1,-2 1,-2 1,-2 v -1 l 1,-2 v -2 -2 z"/><path style="fill:none;stroke:#000;stroke-width:12.5;stroke-linecap:round;stroke-linejoin:round;stroke-miterlimit:10;stroke-dasharray:none;stroke-opacity:1" id="path168" d="m 3983,8874 v -2 -2 -2 l -1,-2 -1,-2 -1,-2 -1,-1 -1,-2 -1,-2 -2,-1 -1,-1 -2,-1 -1,-1 -2,-1 -2,-1 h -2 l -2,-1 h -2 -2 -2 -2 l -2,1 h -2 l -2,1 -1,1 -2,1 -2,1 -1,1 -2,2 -1,1 -1,2 -1,2 -1,2 -1,2 v 1 2 l -1,2 v 2 l 1,2 v 2 2 l 1,2 1,2 1,2 1,2 1,1 1,2 2,1 1,1 2,1 2,1 1,1 2,1 h 2 l 2,1 h 2 2 2 l 2,-1 h 2 l 2,-1 2,-1 2,-1 1,-1 2,-1 1,-1 2,-2 1,-1 1,-2 1,-2 1,-2 v -1 l 1,-2 v -2 -2 z"/><path style="fill:none;stroke:#000;stroke-width:12.5;stroke-linecap:round;stroke-linejoin:round;stroke-miterlimit:10;stroke-dasharray:none;stroke-opacity:1" id="path170" d="m 4103,8874 v -2 -2 -2 l -1,-2 -1,-2 -1,-2 -1,-1 -1,-2 -1,-2 -2,-1 -1,-1 -2,-1 -1,-1 -2,-1 -2,-1 h -2 l -2,-1 h -2 -2 -2 -2 l -2,1 h -2 l -2,1 -1,1 -2,1 -2,1 -1,1 -2,2 -1,1 -1,2 -1,2 -1,2 -1,2 v 1 2 l -1,2 v 2 2 l 1,2 v 2 l 1,2 1,2 1,2 1,2 1,1 1,2 2,1 1,1 2,1 2,1 1,1 2,1 h 2 l 2,1 h 2 2 2 l 2,-1 h 2 l 2,-1 2,-1 2,-1 1,-1 2,-1 1,-1 2,-2 1,-1 1,-2 1,-2 1,-2 v -1 l 1,-2 v -2 -2 z"/><path style="fill:none;stroke:#000;stroke-width:12.5;stroke-linecap:round;stroke-linejoin:round;stroke-miterlimit:10;stroke-dasharray:none;stroke-opacity:1" id="path172" d="m 4223,8874 v -2 -2 -2 l -1,-2 -1,-2 -1,-2 -1,-1 -1,-2 -1,-2 -2,-1 -1,-1 -2,-1 -1,-1 -2,-1 -2,-1 h -2 l -2,-1 h -2 -2 -2 -2 l -2,1 h -2 l -2,1 -1,1 -2,1 -2,1 -1,1 -2,2 -1,1 -1,2 -1,2 -1,2 -1,2 v 1 2 l -1,2 v 2 2 l 1,2 v 2 l 1,2 1,2 1,2 1,2 1,1 1,2 2,1 1,1 2,1 2,1 1,1 2,1 h 2 l 2,1 h 2 2 2 l 2,-1 h 2 l 2,-1 2,-1 2,-1 1,-1 2,-1 1,-1 2,-2 1,-1 1,-2 1,-2 1,-2 v -1 l 1,-2 v -2 -2 z"/><path style="fill:none;stroke:#000;stroke-width:12.5;stroke-linecap:round;stroke-linejoin:round;stroke-miterlimit:10;stroke-dasharray:none;stroke-opacity:1" id="path174" d="m 4343,8874 v -2 -2 -2 l -1,-2 -1,-2 -1,-2 -1,-1 -1,-2 -1,-2 -2,-1 -1,-1 -2,-1 -1,-1 -2,-1 -2,-1 h -2 l -2,-1 h -2 -2 -2 -2 l -2,1 h -2 l -2,1 -1,1 -2,1 -2,1 -1,1 -2,2 -1,1 -1,2 -1,2 -1,2 -1,2 v 1 2 l -1,2 v 2 2 l 1,2 v 2 l 1,2 1,2 1,2 1,2 1,1 1,2 2,1 1,1 2,1 2,1 1,1 2,1 h 2 l 2,1 h 2 2 2 l 2,-1 h 2 l 2,-1 2,-1 2,-1 1,-1 2,-1 1,-1 2,-2 1,-1 1,-2 1,-2 1,-2 v -1 l 1,-2 v -2 -2 z"/><path style="fill:none;stroke:#000;stroke-width:12.5;stroke-linecap:round;stroke-linejoin:round;stroke-miterlimit:10;stroke-dasharray:none;stroke-opacity:1" id="path176" d="m 4463,8874 v -2 -2 -2 l -1,-2 -1,-2 -1,-2 -1,-1 -1,-2 -1,-2 -2,-1 -1,-1 -2,-1 -1,-1 -2,-1 -2,-1 h -2 l -2,-1 h -2 -2 -2 -2 l -2,1 h -2 l -2,1 -1,1 -2,1 -2,1 -1,1 -2,2 -1,1 -1,2 -1,2 -1,2 -1,2 v 1 2 l -1,2 v 2 2 l 1,2 v 2 l 1,2 1,2 1,2 1,2 1,1 1,2 2,1 1,1 2,1 2,1 1,1 2,1 h 2 l 2,1 h 2 2 2 l 2,-1 h 2 l 2,-1 2,-1 2,-1 1,-1 2,-1 1,-1 2,-2 1,-1 1,-2 1,-2 1,-2 v -1 l 1,-2 v -2 -2 z"/><path style="fill:none;stroke:#000;stroke-width:12.5;stroke-linecap:round;stroke-linejoin:round;stroke-miterlimit:10;stroke-dasharray:none;stroke-opacity:1" id="path178" d="m 4583,8874 v -2 -2 -2 l -1,-2 -1,-2 -1,-2 -1,-1 -1,-2 -1,-2 -2,-1 -1,-1 -2,-1 -1,-1 -2,-1 -2,-1 h -2 l -2,-1 h -2 -2 -2 -2 l -2,1 h -2 l -2,1 -2,1 -1,1 -2,1 -1,1 -2,2 -1,1 -1,2 -1,2 -1,2 -1,2 v 1 2 l -1,2 v 2 2 l 1,2 v 2 l 1,2 1,2 1,2 1,2 1,1 1,2 2,1 1,1 2,1 2,1 1,1 2,1 h 2 l 2,1 h 2 2 2 l 2,-1 h 2 l 2,-1 2,-1 2,-1 1,-1 2,-1 1,-1 2,-2 1,-1 1,-2 1,-2 1,-2 v -1 l 1,-2 v -2 -2 z"/><path style="fill:none;stroke:#000;stroke-width:12.5;stroke-linecap:round;stroke-linejoin:round;stroke-miterlimit:10;stroke-dasharray:none;stroke-opacity:1" id="path180" d="m 4703,8874 v -2 -2 l -1,-2 v -2 l -1,-2 -1,-2 -1,-1 -1,-2 -1,-2 -2,-1 -1,-1 -2,-1 -2,-1 -1,-1 -2,-1 h -2 l -2,-1 h -2 -2 -2 -2 l -2,1 h -2 l -2,1 -2,1 -1,1 -2,1 -1,1 -2,2 -1,1 -1,2 -1,2 -1,2 -1,2 v 1 l -1,2 v 2 2 2 l 1,2 v 2 l 1,2 1,2 v 2 l 2,2 1,1 1,2 2,1 1,1 2,1 2,1 1,1 2,1 h 2 l 2,1 h 2 2 2 l 2,-1 h 2 l 2,-1 2,-1 2,-1 1,-1 2,-1 1,-1 2,-2 1,-1 1,-2 1,-2 1,-2 v -1 l 1,-2 v -2 -2 z"/><path style="fill:none;stroke:#000;stroke-width:12.5;stroke-linecap:round;stroke-linejoin:round;stroke-miterlimit:10;stroke-dasharray:none;stroke-opacity:1" id="path182" d="m 4823,8874 v -2 -2 l -1,-2 v -2 l -1,-2 -1,-2 -1,-1 -1,-2 -1,-2 -2,-1 -1,-1 -2,-1 -2,-1 -1,-1 -2,-1 h -2 l -2,-1 h -2 -2 -2 -2 l -2,1 h -2 l -2,1 -2,1 -1,1 -2,1 -1,1 -2,2 -1,1 -1,2 -1,2 -1,2 -1,2 v 1 l -1,2 v 2 2 2 l 1,2 v 2 l 1,2 1,2 v 2 l 2,2 1,1 1,2 2,1 1,1 2,1 2,1 1,1 2,1 h 2 l 2,1 h 2 2 2 l 2,-1 h 2 l 2,-1 2,-1 2,-1 1,-1 2,-1 1,-1 2,-2 1,-1 1,-2 1,-2 1,-2 v -1 l 1,-2 v -2 -2 z"/><path style="fill:none;stroke:#000;stroke-width:12.5;stroke-linecap:round;stroke-linejoin:round;stroke-miterlimit:10;stroke-dasharray:none;stroke-opacity:1" id="path184" d="M 1200,8514 H 2760"/><path style="fill:none;stroke:#000;stroke-width:12.5;stroke-linecap:round;stroke-linejoin:round;stroke-miterlimit:10;stroke-dasharray:none;stroke-opacity:1" id="path186" d="m 2760,8514 v 4319"/><path style="fill:none;stroke:#000;stroke-width:12.5;stroke-linecap:round;stroke-linejoin:round;stroke-miterlimit:10;stroke-dasharray:none;stroke-opacity:1" id="path188" d="M 2760,12833 H 1200"/><path style="fill:none;stroke:#000;stroke-width:12.5;stroke-linecap:round;stroke-linejoin:round;stroke-miterlimit:10;stroke-dasharray:none;stroke-opacity:1" id="path190" d="M 1200,12833 V 8514"/><path style="fill:none;stroke:#000;stroke-width:12.5;stroke-linecap:round;stroke-linejoin:round;stroke-miterlimit:10;stroke-dasharray:none;stroke-opacity:1" id="path192" d="M 3479,8514 H 5039"/><path style="fill:none;stroke:#000;stroke-width:12.5;stroke-linecap:round;stroke-linejoin:round;stroke-miterlimit:10;stroke-dasharray:none;stroke-opacity:1" id="path194" d="m 5039,8514 v 4319"/><path style="fill:none;stroke:#000;stroke-width:12.5;stroke-linecap:round;stroke-linejoin:round;stroke-miterlimit:10;stroke-dasharray:none;stroke-opacity:1" id="path196" d="M 5039,12833 H 3479"/><path style="fill:none;stroke:#000;stroke-width:12.5;stroke-linecap:round;stroke-linejoin:round;stroke-miterlimit:10;stroke-dasharray:none;stroke-opacity:1" id="path198" d="M 3479,12833 V 8514"/><path style="fill:none;stroke:#000;stroke-width:12.5;stroke-linecap:round;stroke-linejoin:round;stroke-miterlimit:10;stroke-dasharray:none;stroke-opacity:1" id="path200" d="m 1440,12623 v 749"/><path style="fill:none;stroke:#000;stroke-width:12.5;stroke-linecap:round;stroke-linejoin:round;stroke-miterlimit:10;stroke-dasharray:none;stroke-opacity:1" id="path202" d="m 3719,12623 v 749"/><path style="fill:none;stroke:#000;stroke-width:12.5;stroke-linecap:round;stroke-linejoin:round;stroke-miterlimit:10;stroke-dasharray:none;stroke-opacity:1" id="path204" d="M 1440,13313 H 3719"/><path style="fill:#000;fill-opacity:1;fill-rule:nonzero;stroke:#000;stroke-width:12.5;stroke-linecap:round;stroke-linejoin:round;stroke-miterlimit:10;stroke-dasharray:none;stroke-opacity:1" id="path206" d="m 1440,13313 118,-20 v 40 z"/><path style="fill:#000;fill-opacity:1;fill-rule:nonzero;stroke:#000;stroke-width:12.5;stroke-linecap:round;stroke-linejoin:round;stroke-miterlimit:10;stroke-dasharray:none;stroke-opacity:1" id="path208" d="m 3719,13313 -118,20 v -40 z"/><path style="fill:none;stroke:#000;stroke-width:12.5;stroke-linecap:round;stroke-linejoin:round;stroke-miterlimit:10;stroke-dasharray:none;stroke-opacity:1" id="path210" d="m 2324,13166 -27,91"/><path style="fill:none;stroke:#000;stroke-width:12.5;stroke-linecap:round;stroke-linejoin:round;stroke-miterlimit:10;stroke-dasharray:none;stroke-opacity:1" id="path212" d="m 2297,13257 h 66"/><path style="fill:none;stroke:#000;stroke-width:12.5;stroke-linecap:round;stroke-linejoin:round;stroke-miterlimit:10;stroke-dasharray:none;stroke-opacity:1" id="path214" d="m 2343,13231 v 53"/><path style="fill:none;stroke:#000;stroke-width:12.5;stroke-linecap:round;stroke-linejoin:round;stroke-miterlimit:10;stroke-dasharray:none;stroke-opacity:1" id="path216" d="m 2455,13257 v -13"/><path style="fill:none;stroke:#000;stroke-width:12.5;stroke-linecap:round;stroke-linejoin:round;stroke-miterlimit:10;stroke-dasharray:none;stroke-opacity:1" id="path218" d="m 2455,13244 v -2 -2 l -1,-2 v -2 l -1,-2 -1,-1 -1,-2 -1,-2 -1,-1 -1,-2 -2,-1 -1,-2 -2,-1 -2,-1 -1,-1 h -2 l -2,-1 h -2 l -2,-1 h -2 -2 -2 -2 l -2,1 h -2 l -2,1 -2,1 -1,1 -2,1 -2,1 -1,2 -1,1 -2,2 -1,2 -1,1 -1,2 v 2 l -1,2 v 2 2 l -1,2"/><path style="fill:none;stroke:#000;stroke-width:12.5;stroke-linecap:round;stroke-linejoin:round;stroke-miterlimit:10;stroke-dasharray:none;stroke-opacity:1" id="path220" d="m 2402,13244 v 13"/><path style="fill:none;stroke:#000;stroke-width:12.5;stroke-linecap:round;stroke-linejoin:round;stroke-miterlimit:10;stroke-dasharray:none;stroke-opacity:1" id="path222" d="m 2402,13257 1,2 v 2 2 l 1,2 v 2 l 1,2 1,2 1,1 1,2 2,1 1,2 2,1 1,1 2,1 2,1 2,1 2,1 h 2 1 l 2,1 h 2 l 2,-1 h 2 2 l 2,-1 2,-1 h 2 l 2,-1 1,-2 2,-1 1,-1 2,-2 1,-1 1,-2 1,-2 1,-1 1,-2 v -2 l 1,-2 v -2 -2 -1"/><path style="fill:none;stroke:#000;stroke-width:12.5;stroke-linecap:round;stroke-linejoin:round;stroke-miterlimit:10;stroke-dasharray:none;stroke-opacity:1" id="path224" d="m 2429,13218 h 2 2 l 2,-1 h 2 l 1,-1 2,-1 2,-1 2,-1 1,-1 2,-1 1,-2 1,-1 2,-2 1,-2 1,-1 v -2 l 1,-2 v -2 l 1,-2 v -2 -2 -2 l -1,-2 v -2 l -1,-2 v -2 l -1,-2 -1,-1 -1,-2 -2,-1 -1,-2 -1,-1 -2,-2 -2,-1 -1,-1 h -2 l -2,-1 -2,-1 h -2 -2 -2"/><path style="fill:none;stroke:#000;stroke-width:12.5;stroke-linecap:round;stroke-linejoin:round;stroke-miterlimit:10;stroke-dasharray:none;stroke-opacity:1" id="path226" d="m 2429,13166 h -2 -2 -2 l -2,1 h -2 l -2,1 -2,1 -1,1 -2,1 -1,2 -2,1 -1,2 -1,1 -1,2 -1,2 -1,2 -1,2 v 2 2 l -1,2 v 2 l 1,2 v 1 2 l 1,2 1,2 v 2 l 1,2 2,1 1,2 1,1 2,2 1,1 2,1 2,1 2,1 1,1 h 2 l 2,1 h 2 2 1"/><path style="fill:none;stroke:#000;stroke-width:12.5;stroke-linecap:round;stroke-linejoin:round;stroke-miterlimit:10;stroke-dasharray:none;stroke-opacity:1" id="path228" d="m 2494,13284 v -7"/><path style="fill:none;stroke:#000;stroke-width:12.5;stroke-linecap:round;stroke-linejoin:round;stroke-miterlimit:10;stroke-dasharray:none;stroke-opacity:1" id="path230" d="m 2534,13185 3,-6"/><path style="fill:none;stroke:#000;stroke-width:12.5;stroke-linecap:round;stroke-linejoin:round;stroke-miterlimit:10;stroke-dasharray:none;stroke-opacity:1" id="path232" d="m 2583,13205 1,-2 v -2 l 1,-2 1,-2 v -2 -2 -2 -2 -1 l -1,-2 v -2 l -1,-2 -1,-2 -1,-2 -1,-1 -1,-2 -1,-2 -2,-1 -1,-1 -2,-1 -2,-1 -1,-1 -2,-1 -2,-1 h -2 -2 -2 -2 -2 -2 -2 l -2,1 -2,1 -2,1 -1,1 -2,1 -2,1 -1,1 -1,2 -2,2 -1,1 v 1"/><path style="fill:none;stroke:#000;stroke-width:12.5;stroke-linecap:round;stroke-linejoin:round;stroke-miterlimit:10;stroke-dasharray:none;stroke-opacity:1" id="path234" d="m 2583,13205 -49,79"/><path style="fill:none;stroke:#000;stroke-width:12.5;stroke-linecap:round;stroke-linejoin:round;stroke-miterlimit:10;stroke-dasharray:none;stroke-opacity:1" id="path236" d="m 2534,13284 h 52"/><path style="fill:none;stroke:#000;stroke-width:12.5;stroke-linecap:round;stroke-linejoin:round;stroke-miterlimit:10;stroke-dasharray:none;stroke-opacity:1" id="path238" d="m 2626,13218 h 26"/><path style="fill:none;stroke:#000;stroke-width:12.5;stroke-linecap:round;stroke-linejoin:round;stroke-miterlimit:10;stroke-dasharray:none;stroke-opacity:1" id="path240" d="m 2678,13244 v -2 -2 l -1,-2 v -2 l -1,-2 -1,-1 -1,-2 -1,-2 -1,-1 -1,-2 -2,-1 -1,-2 -2,-1 -2,-1 -1,-1 h -2 l -2,-1 h -2 l -2,-1 h -2 -1"/><path style="fill:none;stroke:#000;stroke-width:12.5;stroke-linecap:round;stroke-linejoin:round;stroke-miterlimit:10;stroke-dasharray:none;stroke-opacity:1" id="path242" d="m 2678,13244 v 13"/><path style="fill:none;stroke:#000;stroke-width:12.5;stroke-linecap:round;stroke-linejoin:round;stroke-miterlimit:10;stroke-dasharray:none;stroke-opacity:1" id="path244" d="m 2626,13257 v 2 2 2 l 1,2 v 2 l 1,2 1,2 1,1 1,2 2,1 1,2 2,1 1,1 2,1 2,1 2,1 2,1 h 2 2 l 2,1 h 2 l 2,-1 h 2 1 l 2,-1 2,-1 h 2 l 2,-1 1,-2 2,-1 1,-1 2,-2 1,-1 1,-2 1,-2 1,-1 1,-2 v -2 l 1,-2 v -2 -2 -1"/><path style="fill:none;stroke:#000;stroke-width:12.5;stroke-linecap:round;stroke-linejoin:round;stroke-miterlimit:10;stroke-dasharray:none;stroke-opacity:1" id="path246" d="m 2626,13257 v -39"/><path style="fill:none;stroke:#000;stroke-width:12.5;stroke-linecap:round;stroke-linejoin:round;stroke-miterlimit:10;stroke-dasharray:none;stroke-opacity:1" id="path248" d="m 2665,13166 h -2 l -2,1 h -2 l -2,1 -1,1 -2,1 -2,1 -2,1 -1,1 -2,1 -1,2 -2,1 -1,1 -2,2 -1,1 -2,2 -1,1 -1,2 -1,1 -1,2 -1,2 -1,2 -1,1 -1,2 -1,2 v 2 l -1,2 -1,2 v 2 l -1,2 v 2 2 2 2 2"/><path style="fill:none;stroke:#000;stroke-width:12.5;stroke-linecap:round;stroke-linejoin:round;stroke-miterlimit:10;stroke-dasharray:none;stroke-opacity:1" id="path250" d="m 2757,13172 -2,-1 -1,-2 -2,-1 -1,-1 -2,-1 h -2 -2 -2 -2 -2 l -2,1 -2,1 -1,1 -2,1 -1,2 h -1"/><path style="fill:none;stroke:#000;stroke-width:12.5;stroke-linecap:round;stroke-linejoin:round;stroke-miterlimit:10;stroke-dasharray:none;stroke-opacity:1" id="path252" d="m 2730,13172 v 2 l -1,2 -1,1 -1,2 -1,2 -1,2 v 2 l -1,2 -1,2 v 1 l -1,2 v 2 l -1,2 v 2 l -1,2 v 2 l -1,2 v 2 2 l -1,2 v 2 2 2 2 l -1,2 v 2 2 2 2 2 l 1,2 v 2 2 2 2 l 1,2 v 2 2 l 1,2 v 2 l 1,2 v 2 l 1,1 v 2 l 1,2 1,2 v 2 l 1,2 1,2 v 2 l 1,1 1,2 1,2 1,2 v 1"/><path style="fill:none;stroke:#000;stroke-width:12.5;stroke-linecap:round;stroke-linejoin:round;stroke-miterlimit:10;stroke-dasharray:none;stroke-opacity:1" id="path254" d="m 2730,13277 2,2 1,1 2,1 2,1 1,1 h 2 l 2,1 h 2 l 2,-1 h 2 l 2,-1 2,-1 2,-1 1,-1 1,-2 h 1"/><path style="fill:none;stroke:#000;stroke-width:12.5;stroke-linecap:round;stroke-linejoin:round;stroke-miterlimit:10;stroke-dasharray:none;stroke-opacity:1" id="path256" d="m 2757,13277 1,-2 1,-2 v -1 l 1,-2 1,-2 1,-2 1,-2 v -2 l 1,-1 1,-2 v -2 l 1,-2 v -2 l 1,-2 v -2 l 1,-2 v -2 -2 l 1,-2 v -2 -2 -2 l 1,-2 v -2 -2 -2 -2 -2 -2 -2 -2 l -1,-2 v -2 -2 -2 l -1,-2 v -2 -2 l -1,-2 v -2 -2 l -1,-1 -1,-2 v -2 l -1,-2 v -2 l -1,-2 -1,-2 v -2 l -1,-2 -1,-1 -1,-2 -1,-2 -1,-2 v -1"/><path style="fill:none;stroke:#000;stroke-width:12.5;stroke-linecap:round;stroke-linejoin:round;stroke-miterlimit:10;stroke-dasharray:none;stroke-opacity:1" id="path258" d="m 2849,13172 -2,-1 -1,-2 -2,-1 -2,-1 -1,-1 h -2 -2 -2 -2 -2 l -2,1 -2,1 -2,1 -1,1 -1,2 h -1"/><path style="fill:none;stroke:#000;stroke-width:12.5;stroke-linecap:round;stroke-linejoin:round;stroke-miterlimit:10;stroke-dasharray:none;stroke-opacity:1" id="path260" d="m 2822,13172 -1,2 v 2 l -1,1 -1,2 -1,2 -1,2 v 2 l -1,2 -1,2 v 1 l -1,2 -1,2 v 2 l -1,2 v 2 l -1,2 v 2 2 l -1,2 v 2 2 2 2 l -1,2 v 2 2 2 2 2 2 2 l 1,2 v 2 2 2 l 1,2 v 2 2 l 1,2 v 2 l 1,2 v 2 l 1,1 v 2 l 1,2 v 2 l 1,2 1,2 1,2 v 2 l 1,1 1,2 1,2 1,2 v 1"/><path style="fill:none;stroke:#000;stroke-width:12.5;stroke-linecap:round;stroke-linejoin:round;stroke-miterlimit:10;stroke-dasharray:none;stroke-opacity:1" id="path262" d="m 2822,13277 2,2 1,1 2,1 1,1 2,1 h 2 l 2,1 h 2 l 2,-1 h 2 l 2,-1 2,-1 1,-1 2,-1 1,-2 h 1"/><path style="fill:none;stroke:#000;stroke-width:12.5;stroke-linecap:round;stroke-linejoin:round;stroke-miterlimit:10;stroke-dasharray:none;stroke-opacity:1" id="path264" d="m 2849,13277 v -2 l 1,-2 1,-1 1,-2 1,-2 1,-2 v -2 l 1,-2 1,-1 v -2 l 1,-2 1,-2 v -2 l 1,-2 v -2 -2 l 1,-2 v -2 -2 l 1,-2 v -2 -2 -2 -2 l 1,-2 v -2 -2 -2 -2 -2 l -1,-2 v -2 -2 -2 -2 l -1,-2 v -2 -2 l -1,-2 v -2 l -1,-2 v -1 l -1,-2 v -2 l -1,-2 -1,-2 v -2 l -1,-2 -1,-2 v -2 l -1,-1 -1,-2 -1,-2 -1,-2 v -1"/><path style="fill:none;stroke:#000;stroke-width:12.5;stroke-linecap:round;stroke-linejoin:round;stroke-miterlimit:10;stroke-dasharray:none;stroke-opacity:1" id="path266" d="M 1410,12593 H 661"/><path style="fill:none;stroke:#000;stroke-width:12.5;stroke-linecap:round;stroke-linejoin:round;stroke-miterlimit:10;stroke-dasharray:none;stroke-opacity:1" id="path268" d="M 1410,8874 H 661"/><path style="fill:none;stroke:#000;stroke-width:12.5;stroke-linecap:round;stroke-linejoin:round;stroke-miterlimit:10;stroke-dasharray:none;stroke-opacity:1" id="path270" d="M 720,12593 V 8874"/><path style="fill:#000;fill-opacity:1;fill-rule:nonzero;stroke:#000;stroke-width:12.5;stroke-linecap:round;stroke-linejoin:round;stroke-miterlimit:10;stroke-dasharray:none;stroke-opacity:1" id="path272" d="m 720,12593 -20,-118 h 40 z"/><path style="fill:#000;fill-opacity:1;fill-rule:nonzero;stroke:#000;stroke-width:12.5;stroke-linecap:round;stroke-linejoin:round;stroke-miterlimit:10;stroke-dasharray:none;stroke-opacity:1" id="path274" d="m 720,8874 20,118 h -40 z"/><path style="fill:none;stroke:#000;stroke-width:12.5;stroke-linecap:round;stroke-linejoin:round;stroke-miterlimit:10;stroke-dasharray:none;stroke-opacity:1" id="path276" d="M 585,11016 H 572"/><path style="fill:none;stroke:#000;stroke-width:12.5;stroke-linecap:round;stroke-linejoin:round;stroke-miterlimit:10;stroke-dasharray:none;stroke-opacity:1" id="path278" d="m 572,11016 v -53"/><path style="fill:none;stroke:#000;stroke-width:12.5;stroke-linecap:round;stroke-linejoin:round;stroke-miterlimit:10;stroke-dasharray:none;stroke-opacity:1" id="path280" d="m 572,10963 118,26"/><path style="fill:none;stroke:#000;stroke-width:12.5;stroke-linecap:round;stroke-linejoin:round;stroke-miterlimit:10;stroke-dasharray:none;stroke-opacity:1" id="path282" d="M 664,10871 H 651"/><path style="fill:none;stroke:#000;stroke-width:12.5;stroke-linecap:round;stroke-linejoin:round;stroke-miterlimit:10;stroke-dasharray:none;stroke-opacity:1" id="path284" d="m 651,10871 h -2 l -2,1 h -2 l -2,1 h -2 l -2,1 -1,1 -2,1 -2,1 -1,2 -2,1 -1,2 -1,1 -1,2 -1,2 -1,2 v 1 l -1,2 v 2 2 2 2 2 l 1,2 v 2 l 1,2 1,2 1,2 1,1 1,2 2,1 1,2 2,1 1,1 2,1 2,1 h 2 l 2,1 h 2 l 2,1 h 2"/><path style="fill:none;stroke:#000;stroke-width:12.5;stroke-linecap:round;stroke-linejoin:round;stroke-miterlimit:10;stroke-dasharray:none;stroke-opacity:1" id="path286" d="m 651,10924 h 13"/><path style="fill:none;stroke:#000;stroke-width:12.5;stroke-linecap:round;stroke-linejoin:round;stroke-miterlimit:10;stroke-dasharray:none;stroke-opacity:1" id="path288" d="m 664,10924 h 2 l 2,-1 h 2 2 l 2,-1 2,-1 1,-1 2,-1 2,-1 1,-1 2,-2 1,-1 1,-2 1,-2 1,-2 1,-1 v -2 l 1,-2 v -2 -2 -2 -2 -2 l -1,-2 v -2 l -1,-2 -1,-2 -1,-1 -1,-2 -1,-2 -1,-1 -2,-1 -1,-2 -2,-1 -2,-1 -2,-1 h -2 l -2,-1 h -1 l -2,-1 h -2 -1"/><path style="fill:none;stroke:#000;stroke-width:12.5;stroke-linecap:round;stroke-linejoin:round;stroke-miterlimit:10;stroke-dasharray:none;stroke-opacity:1" id="path290" d="m 625,10898 v -2 l -1,-2 v -2 -2 l -1,-2 -1,-2 -1,-2 -1,-1 -1,-2 -2,-2 -1,-1 -1,-1 -2,-1 -2,-1 -2,-1 -1,-1 -2,-1 h -2 -2 l -2,-1 h -2 -2 l -2,1 h -2 l -2,1 h -2 l -2,1 -1,1 -2,1 -2,2 -1,1 -2,2 -1,1 -1,2 -1,2 -1,1 v 2 l -1,2 v 2 l -1,2 v 2 1"/><path style="fill:none;stroke:#000;stroke-width:12.5;stroke-linecap:round;stroke-linejoin:round;stroke-miterlimit:10;stroke-dasharray:none;stroke-opacity:1" id="path292" d="m 572,10898 v 2 l 1,2 v 1 2 l 1,2 1,2 1,2 1,2 1,1 2,2 1,1 2,1 1,1 2,2 h 2 l 1,1 2,1 h 2 l 2,1 h 2 2 2 l 2,-1 h 2 l 2,-1 h 2 l 2,-1 2,-1 1,-1 2,-2 1,-1 2,-1 1,-2 1,-2 1,-1 1,-2 v -2 l 1,-2 v -2 l 1,-2 v -2"/><path style="fill:none;stroke:#000;stroke-width:12.5;stroke-linecap:round;stroke-linejoin:round;stroke-miterlimit:10;stroke-dasharray:none;stroke-opacity:1" id="path294" d="m 690,10832 h -6"/><path style="fill:none;stroke:#000;stroke-width:12.5;stroke-linecap:round;stroke-linejoin:round;stroke-miterlimit:10;stroke-dasharray:none;stroke-opacity:1" id="path296" d="M 585,10793 H 572"/><path style="fill:none;stroke:#000;stroke-width:12.5;stroke-linecap:round;stroke-linejoin:round;stroke-miterlimit:10;stroke-dasharray:none;stroke-opacity:1" id="path298" d="m 572,10793 v -53"/><path style="fill:none;stroke:#000;stroke-width:12.5;stroke-linecap:round;stroke-linejoin:round;stroke-miterlimit:10;stroke-dasharray:none;stroke-opacity:1" id="path300" d="m 572,10740 118,26"/><path style="fill:none;stroke:#000;stroke-width:12.5;stroke-linecap:round;stroke-linejoin:round;stroke-miterlimit:10;stroke-dasharray:none;stroke-opacity:1" id="path302" d="m 572,10674 92,27"/><path style="fill:none;stroke:#000;stroke-width:12.5;stroke-linecap:round;stroke-linejoin:round;stroke-miterlimit:10;stroke-dasharray:none;stroke-opacity:1" id="path304" d="m 664,10701 v -66"/><path style="fill:none;stroke:#000;stroke-width:12.5;stroke-linecap:round;stroke-linejoin:round;stroke-miterlimit:10;stroke-dasharray:none;stroke-opacity:1" id="path306" d="m 638,10655 h 52"/><path style="fill:none;stroke:#000;stroke-width:12.5;stroke-linecap:round;stroke-linejoin:round;stroke-miterlimit:10;stroke-dasharray:none;stroke-opacity:1" id="path308" d="m 579,10556 -2,2 -1,1 -1,2 -1,2 -1,1 v 2 l -1,2 v 2 l 1,2 v 2 l 1,2 1,2 1,2 1,1 1,1 1,1"/><path style="fill:none;stroke:#000;stroke-width:12.5;stroke-linecap:round;stroke-linejoin:round;stroke-miterlimit:10;stroke-dasharray:none;stroke-opacity:1" id="path310" d="m 579,10583 2,1 h 1 l 2,1 2,1 2,1 2,1 h 2 l 1,1 2,1 h 2 l 2,1 2,1 h 2 l 2,1 h 2 2 l 2,1 h 2 l 2,1 h 2 2 2 2 l 2,1 h 2 2 2 2 2 2 2 l 2,-1 h 2 2 2 l 2,-1 h 2 2 l 2,-1 h 1 l 2,-1 h 2 l 2,-1 h 2 l 2,-1 h 2 l 2,-1 2,-1 2,-1 h 1 l 2,-1 2,-1 2,-1 2,-1 h 1"/><path style="fill:none;stroke:#000;stroke-width:12.5;stroke-linecap:round;stroke-linejoin:round;stroke-miterlimit:10;stroke-dasharray:none;stroke-opacity:1" id="path312" d="m 684,10583 1,-2 2,-1 1,-2 1,-2 1,-1 v -2 -2 -2 -2 -2 l -1,-2 -1,-2 -1,-2 -1,-1 -2,-1 v -1"/><path style="fill:none;stroke:#000;stroke-width:12.5;stroke-linecap:round;stroke-linejoin:round;stroke-miterlimit:10;stroke-dasharray:none;stroke-opacity:1" id="path314" d="m 684,10556 -2,-1 h -2 l -2,-1 -1,-1 -2,-1 -2,-1 h -2 l -2,-1 -2,-1 h -2 l -2,-1 -1,-1 h -2 l -2,-1 h -2 -2 l -2,-1 h -2 -2 l -2,-1 h -2 -2 -2 l -2,-1 h -2 -2 -2 -2 -2 -2 l -2,1 h -2 -2 -2 -2 l -2,1 h -2 -2 l -2,1 h -2 l -2,1 h -2 l -2,1 h -2 l -1,1 h -2 l -2,1 -2,1 -2,1 h -2 l -2,1 -1,1 -2,1 -2,1 h -1"/><path style="fill:none;stroke:#000;stroke-width:12.5;stroke-linecap:round;stroke-linejoin:round;stroke-miterlimit:10;stroke-dasharray:none;stroke-opacity:1" id="path316" d="m 579,10465 -2,1 -1,1 -1,2 -1,2 -1,2 v 1 l -1,2 v 2 l 1,2 v 2 l 1,2 1,2 1,2 1,1 1,2 h 1"/><path style="fill:none;stroke:#000;stroke-width:12.5;stroke-linecap:round;stroke-linejoin:round;stroke-miterlimit:10;stroke-dasharray:none;stroke-opacity:1" id="path318" d="m 579,10491 2,1 1,1 h 2 l 2,1 2,1 2,1 2,1 h 1 l 2,1 2,1 h 2 l 2,1 h 2 l 2,1 h 2 l 2,1 h 2 2 l 2,1 h 2 2 2 l 2,1 h 2 2 2 2 2 2 2 2 2 l 2,-1 h 2 2 2 l 2,-1 h 2 l 2,-1 h 1 2 l 2,-1 h 2 l 2,-1 2,-1 h 2 l 2,-1 2,-1 h 2 l 1,-1 2,-1 2,-1 2,-1 2,-1 h 1"/><path style="fill:none;stroke:#000;stroke-width:12.5;stroke-linecap:round;stroke-linejoin:round;stroke-miterlimit:10;stroke-dasharray:none;stroke-opacity:1" id="path320" d="m 684,10491 1,-2 2,-1 1,-2 1,-1 1,-2 v -2 -2 -2 -2 -2 l -1,-2 -1,-2 -1,-1 -1,-2 -2,-1"/><path style="fill:none;stroke:#000;stroke-width:12.5;stroke-linecap:round;stroke-linejoin:round;stroke-miterlimit:10;stroke-dasharray:none;stroke-opacity:1" id="path322" d="m 684,10465 -2,-1 -2,-1 -2,-1 -1,-1 -2,-1 -2,-1 h -2 l -2,-1 -2,-1 h -2 l -2,-1 h -1 l -2,-1 h -2 l -2,-1 h -2 l -2,-1 h -2 -2 l -2,-1 h -2 -2 -2 -2 -2 l -2,-1 h -2 -2 -2 l -2,1 h -2 -2 -2 -2 -2 l -2,1 h -2 -2 l -2,1 h -2 l -2,1 h -2 l -2,1 h -2 l -1,1 -2,1 h -2 l -2,1 -2,1 -2,1 h -2 l -1,1 -2,1 -2,1 -1,1"/><path style="fill:none;stroke:#000;stroke-width:12.5;stroke-linecap:round;stroke-linejoin:round;stroke-miterlimit:10;stroke-dasharray:none;stroke-opacity:1" id="path324" d="m 4094,8296 h 47"/><path style="fill:none;stroke:#000;stroke-width:12.5;stroke-linecap:round;stroke-linejoin:round;stroke-miterlimit:10;stroke-dasharray:none;stroke-opacity:1" id="path326" d="m 4141,8296 h 2 l 2,-1 h 2 2 l 2,-1 2,-1 h 2 l 2,-1 1,-1 2,-1 1,-2 2,-1 1,-1 2,-2 1,-2 1,-1 1,-2 1,-2 1,-2 v -2 l 1,-1 v -2 l 1,-2 v -2 -2"/><path style="fill:none;stroke:#000;stroke-width:12.5;stroke-linecap:round;stroke-linejoin:round;stroke-miterlimit:10;stroke-dasharray:none;stroke-opacity:1" id="path328" d="m 4173,8264 v -79"/><path style="fill:none;stroke:#000;stroke-width:12.5;stroke-linecap:round;stroke-linejoin:round;stroke-miterlimit:10;stroke-dasharray:none;stroke-opacity:1" id="path330" d="m 4173,8185 v -2 l -1,-2 v -2 -1 l -1,-2 -1,-2 v -2 l -1,-2 -1,-2 -1,-1 -2,-2 -1,-1 -1,-2 -2,-1 -2,-1 -1,-1 -2,-1 -2,-1 -2,-1 -1,-1 h -2 l -2,-1 h -2 -2 -2"/><path style="fill:none;stroke:#000;stroke-width:12.5;stroke-linecap:round;stroke-linejoin:round;stroke-miterlimit:10;stroke-dasharray:none;stroke-opacity:1" id="path332" d="m 4141,8154 h -47"/><path style="fill:none;stroke:#000;stroke-width:12.5;stroke-linecap:round;stroke-linejoin:round;stroke-miterlimit:10;stroke-dasharray:none;stroke-opacity:1" id="path334" d="m 4094,8154 v 142"/><path style="fill:none;stroke:#000;stroke-width:12.5;stroke-linecap:round;stroke-linejoin:round;stroke-miterlimit:10;stroke-dasharray:none;stroke-opacity:1" id="path336" d="m 4220,8154 v 102"/><path style="fill:none;stroke:#000;stroke-width:12.5;stroke-linecap:round;stroke-linejoin:round;stroke-miterlimit:10;stroke-dasharray:none;stroke-opacity:1" id="path338" d="m 4220,8256 v 2 2 2 l 1,2 v 2 l 1,2 v 2 l 1,2 1,2 1,1 1,2 1,2 1,1 1,2 2,1 1,2 2,1 1,1 2,2 2,1 1,1 2,1 2,1 h 2 l 2,1 h 2 l 2,1 h 2 1 l 2,1 h 2 2 l 2,-1 h 2 2 l 2,-1 h 2 l 2,-1 2,-1 h 2 l 2,-1 1,-1 2,-2 2,-1 1,-1 2,-1 1,-2 1,-1 2,-2 1,-1 1,-2 1,-2 1,-2 1,-1 v -2 l 1,-2 v -2 l 1,-2 v -2 l 1,-2 v -2 -2"/><path style="fill:none;stroke:#000;stroke-width:12.5;stroke-linecap:round;stroke-linejoin:round;stroke-miterlimit:10;stroke-dasharray:none;stroke-opacity:1" id="path340" d="M 4299,8256 V 8154"/><path style="fill:none;stroke:#000;stroke-width:12.5;stroke-linecap:round;stroke-linejoin:round;stroke-miterlimit:10;stroke-dasharray:none;stroke-opacity:1" id="path342" d="m 4346,8154 h 79"/><path style="fill:none;stroke:#000;stroke-width:12.5;stroke-linecap:round;stroke-linejoin:round;stroke-miterlimit:10;stroke-dasharray:none;stroke-opacity:1" id="path344" d="m 4385,8154 v 142"/><path style="fill:none;stroke:#000;stroke-width:12.5;stroke-linecap:round;stroke-linejoin:round;stroke-miterlimit:10;stroke-dasharray:none;stroke-opacity:1" id="path346" d="M 1586,8296 V 8154"/><path style="fill:none;stroke:#000;stroke-width:12.5;stroke-linecap:round;stroke-linejoin:round;stroke-miterlimit:10;stroke-dasharray:none;stroke-opacity:1" id="path348" d="m 1586,8154 h 39"/><path style="fill:none;stroke:#000;stroke-width:12.5;stroke-linecap:round;stroke-linejoin:round;stroke-miterlimit:10;stroke-dasharray:none;stroke-opacity:1" id="path350" d="m 1625,8233 h 2 l 2,-1 h 2 2 l 2,-1 h 2 l 2,-1 2,-1 h 2 l 2,-1 1,-1 2,-1 2,-2 1,-1 2,-1 1,-2 1,-1 2,-2 1,-1 1,-2 1,-2 1,-1 1,-2 v -2 l 1,-2 1,-2 v -2 -2 l 1,-2 v -2 -2 -2 -2 l -1,-2 v -2 l -1,-2 v -2 l -1,-2 -1,-1 v -2 l -1,-2 -1,-2 -1,-1 -2,-2 -1,-2 -1,-1 -2,-1 -1,-2 -2,-1 -1,-1 -2,-1 -2,-1 -2,-1 -1,-1 -2,-1 h -2 l -2,-1 h -2 l -2,-1 h -2 -2 -2"/><path style="fill:none;stroke:#000;stroke-width:12.5;stroke-linecap:round;stroke-linejoin:round;stroke-miterlimit:10;stroke-dasharray:none;stroke-opacity:1" id="path352" d="m 1625,8233 h -39"/><path style="fill:none;stroke:#000;stroke-width:12.5;stroke-linecap:round;stroke-linejoin:round;stroke-miterlimit:10;stroke-dasharray:none;stroke-opacity:1" id="path354" d="m 1712,8154 v 126"/><path style="fill:none;stroke:#000;stroke-width:12.5;stroke-linecap:round;stroke-linejoin:round;stroke-miterlimit:10;stroke-dasharray:none;stroke-opacity:1" id="path356" d="m 1712,8280 v 2 l 1,2 v 2 l 1,2 1,1 1,2 2,1 1,1 2,1 2,1 h 2 l 2,1 h 1"/><path style="fill:none;stroke:#000;stroke-width:12.5;stroke-linecap:round;stroke-linejoin:round;stroke-miterlimit:10;stroke-dasharray:none;stroke-opacity:1" id="path358" d="m 1783,8201 h 31"/><path style="fill:none;stroke:#000;stroke-width:12.5;stroke-linecap:round;stroke-linejoin:round;stroke-miterlimit:10;stroke-dasharray:none;stroke-opacity:1" id="path360" d="m 1838,8225 v -2 -2 l -1,-2 v -2 l -1,-2 -1,-2 -1,-1 -1,-2 -2,-2 -1,-1 -2,-1 -1,-1 -2,-1 -2,-1 -2,-1 h -2 l -2,-1 h -2 -1"/><path style="fill:none;stroke:#000;stroke-width:12.5;stroke-linecap:round;stroke-linejoin:round;stroke-miterlimit:10;stroke-dasharray:none;stroke-opacity:1" id="path362" d="m 1838,8225 v 71"/><path style="fill:none;stroke:#000;stroke-width:12.5;stroke-linecap:round;stroke-linejoin:round;stroke-miterlimit:10;stroke-dasharray:none;stroke-opacity:1" id="path364" d="m 1838,8296 h -39"/><path style="fill:none;stroke:#000;stroke-width:12.5;stroke-linecap:round;stroke-linejoin:round;stroke-miterlimit:10;stroke-dasharray:none;stroke-opacity:1" id="path366" d="m 1799,8248 -2,1 h -2 -2 l -2,1 -2,1 h -2 l -2,1 -1,2 -2,1 -1,1 -1,2 -1,2 -1,1 -1,2 -1,2 v 2 l -1,2 v 2 2 2 2 l 1,2 1,2 v 2 l 1,1 2,2 1,2 1,1 2,1 1,2 2,1 h 2 l 2,1 1,1 h 2 l 2,1 h 2 1"/><path style="fill:none;stroke:#000;stroke-width:12.5;stroke-linecap:round;stroke-linejoin:round;stroke-miterlimit:10;stroke-dasharray:none;stroke-opacity:1" id="path368" d="m 1799,8248 h 39"/><path style="fill:none;stroke:#000;stroke-width:12.5;stroke-linecap:round;stroke-linejoin:round;stroke-miterlimit:10;stroke-dasharray:none;stroke-opacity:1" id="path370" d="M 1901,8296 V 8154"/><path style="fill:none;stroke:#000;stroke-width:12.5;stroke-linecap:round;stroke-linejoin:round;stroke-miterlimit:10;stroke-dasharray:none;stroke-opacity:1" id="path372" d="m 1885,8201 h 47"/><path style="fill:none;stroke:#000;stroke-width:12.5;stroke-linecap:round;stroke-linejoin:round;stroke-miterlimit:10;stroke-dasharray:none;stroke-opacity:1" id="path374" d="M 1995,8296 V 8178"/><path style="fill:none;stroke:#000;stroke-width:12.5;stroke-linecap:round;stroke-linejoin:round;stroke-miterlimit:10;stroke-dasharray:none;stroke-opacity:1" id="path376" d="m 2019,8154 h -2 -2 l -2,1 h -2 l -2,1 -1,1 -2,1 -2,1 -1,1 -2,2 -1,1 -1,2 -1,2 -1,2 -1,2 v 2 1 l -1,2 v 2"/><path style="fill:none;stroke:#000;stroke-width:12.5;stroke-linecap:round;stroke-linejoin:round;stroke-miterlimit:10;stroke-dasharray:none;stroke-opacity:1" id="path378" d="m 2019,8154 h 8"/><path style="fill:none;stroke:#000;stroke-width:12.5;stroke-linecap:round;stroke-linejoin:round;stroke-miterlimit:10;stroke-dasharray:none;stroke-opacity:1" id="path380" d="m 1980,8201 h 47"/><path style="fill:none;stroke:#000;stroke-width:12.5;stroke-linecap:round;stroke-linejoin:round;stroke-miterlimit:10;stroke-dasharray:none;stroke-opacity:1" id="path382" d="m 2074,8264 v 2 2 l 1,2 v 2 l 1,2 v 2 l 1,2 1,1 1,2 1,2 2,1 1,2 1,1 2,2 1,1 2,1 2,1 2,1 1,1 h 2 l 2,1 h 2 2 l 2,1 h 2 2 l 2,-1 h 2 2 l 2,-1 2,-1 2,-1 1,-1 2,-1 2,-1 1,-1 2,-1 1,-2 1,-1 2,-2 1,-2 1,-1 1,-2 v -2 l 1,-2 v -2 l 1,-2 v -2 -2 -1"/><path style="fill:none;stroke:#000;stroke-width:12.5;stroke-linecap:round;stroke-linejoin:round;stroke-miterlimit:10;stroke-dasharray:none;stroke-opacity:1" id="path384" d="m 2074,8264 v -31"/><path style="fill:none;stroke:#000;stroke-width:12.5;stroke-linecap:round;stroke-linejoin:round;stroke-miterlimit:10;stroke-dasharray:none;stroke-opacity:1" id="path386" d="m 2137,8233 v -2 -2 -2 l -1,-2 v -2 l -1,-2 -1,-2 -1,-2 -1,-1 -1,-2 -1,-2 -2,-1 -1,-1 -2,-2 -1,-1 -2,-1 -2,-1 -1,-1 -2,-1 h -2 l -2,-1 h -2 l -2,-1 h -2 -2 -2 l -2,1 h -2 -2 l -2,1 -2,1 h -1 l -2,1 -2,1 -1,2 -2,1 -1,1 -2,2 -1,1 -1,2 -1,2 -1,1 -1,2 -1,2 -1,2 v 2 2 l -1,2 v 2 1"/><path style="fill:none;stroke:#000;stroke-width:12.5;stroke-linecap:round;stroke-linejoin:round;stroke-miterlimit:10;stroke-dasharray:none;stroke-opacity:1" id="path388" d="m 2137,8233 v 31"/><path style="fill:none;stroke:#000;stroke-width:12.5;stroke-linecap:round;stroke-linejoin:round;stroke-miterlimit:10;stroke-dasharray:none;stroke-opacity:1" id="path390" d="m 2184,8296 v -95"/><path style="fill:none;stroke:#000;stroke-width:12.5;stroke-linecap:round;stroke-linejoin:round;stroke-miterlimit:10;stroke-dasharray:none;stroke-opacity:1" id="path392" d="m 2184,8201 h 48"/><path style="fill:none;stroke:#000;stroke-width:12.5;stroke-linecap:round;stroke-linejoin:round;stroke-miterlimit:10;stroke-dasharray:none;stroke-opacity:1" id="path394" d="m 2232,8201 v 16"/><path style="fill:none;stroke:#000;stroke-width:12.5;stroke-linecap:round;stroke-linejoin:round;stroke-miterlimit:10;stroke-dasharray:none;stroke-opacity:1" id="path396" d="m 2326,8296 v -95"/><path style="fill:none;stroke:#000;stroke-width:12.5;stroke-linecap:round;stroke-linejoin:round;stroke-miterlimit:10;stroke-dasharray:none;stroke-opacity:1" id="path398" d="m 2279,8296 v -95"/><path style="fill:none;stroke:#000;stroke-width:12.5;stroke-linecap:round;stroke-linejoin:round;stroke-miterlimit:10;stroke-dasharray:none;stroke-opacity:1" id="path400" d="m 2279,8201 h 71"/><path style="fill:none;stroke:#000;stroke-width:12.5;stroke-linecap:round;stroke-linejoin:round;stroke-miterlimit:10;stroke-dasharray:none;stroke-opacity:1" id="path402" d="m 2373,8225 v -2 -2 -2 l -1,-2 -1,-2 -1,-2 -1,-1 -1,-2 -1,-2 -2,-1 -1,-1 -2,-1 -2,-1 -1,-1 -2,-1 h -2 l -2,-1 h -2 -1"/><path style="fill:none;stroke:#000;stroke-width:12.5;stroke-linecap:round;stroke-linejoin:round;stroke-miterlimit:10;stroke-dasharray:none;stroke-opacity:1" id="path404" d="m 2373,8225 v 71"/><path style="fill:none;stroke:#000;stroke-width:12.5;stroke-linecap:round;stroke-linejoin:round;stroke-miterlimit:10;stroke-dasharray:none;stroke-opacity:1" id="path406" d="m 1440,8903 v 270"/><path style="fill:none;stroke:#000;stroke-width:12.5;stroke-linecap:round;stroke-linejoin:round;stroke-miterlimit:10;stroke-dasharray:none;stroke-opacity:1" id="path408" d="m 1560,8903 v 270"/><path style="fill:none;stroke:#000;stroke-width:12.5;stroke-linecap:round;stroke-linejoin:round;stroke-miterlimit:10;stroke-dasharray:none;stroke-opacity:1" id="path410" d="m 1204,9114 h 592"/><path style="fill:#000;fill-opacity:1;fill-rule:nonzero;stroke:#000;stroke-width:12.5;stroke-linecap:round;stroke-linejoin:round;stroke-miterlimit:10;stroke-dasharray:none;stroke-opacity:1" id="path412" d="m 1440,9114 -118,19 v -39 z"/><path style="fill:#000;fill-opacity:1;fill-rule:nonzero;stroke:#000;stroke-width:12.5;stroke-linecap:round;stroke-linejoin:round;stroke-miterlimit:10;stroke-dasharray:none;stroke-opacity:1" id="path414" d="m 1560,9114 118,-20 v 39 z"/><path style="fill:none;stroke:#000;stroke-width:12.5;stroke-linecap:round;stroke-linejoin:round;stroke-miterlimit:10;stroke-dasharray:none;stroke-opacity:1" id="path416" d="m 1589,8986 4,-7"/><path style="fill:none;stroke:#000;stroke-width:12.5;stroke-linecap:round;stroke-linejoin:round;stroke-miterlimit:10;stroke-dasharray:none;stroke-opacity:1" id="path418" d="m 1638,9006 1,-2 1,-2 1,-2 v -2 -2 l 1,-2 v -2 -2 l -1,-2 v -2 l -1,-2 v -2 l -1,-1 -1,-2 -1,-2 -1,-1 -2,-2 -1,-1 -2,-2 -1,-1 -2,-1 -2,-1 h -2 l -2,-1 h -2 l -2,-1 h -2 -2 -2 l -1,1 h -2 l -2,1 h -2 l -2,1 -2,1 -1,2 -2,1 -1,1 -2,2 -1,1 -1,2"/><path style="fill:none;stroke:#000;stroke-width:12.5;stroke-linecap:round;stroke-linejoin:round;stroke-miterlimit:10;stroke-dasharray:none;stroke-opacity:1" id="path420" d="m 1638,9006 -49,78"/><path style="fill:none;stroke:#000;stroke-width:12.5;stroke-linecap:round;stroke-linejoin:round;stroke-miterlimit:10;stroke-dasharray:none;stroke-opacity:1" id="path422" d="m 1589,9084 h 53"/><path style="fill:none;stroke:#000;stroke-width:12.5;stroke-linecap:round;stroke-linejoin:round;stroke-miterlimit:10;stroke-dasharray:none;stroke-opacity:1" id="path424" d="m 1681,9084 v -6"/><path style="fill:none;stroke:#000;stroke-width:12.5;stroke-linecap:round;stroke-linejoin:round;stroke-miterlimit:10;stroke-dasharray:none;stroke-opacity:1" id="path426" d="m 1773,8966 h -53"/><path style="fill:none;stroke:#000;stroke-width:12.5;stroke-linecap:round;stroke-linejoin:round;stroke-miterlimit:10;stroke-dasharray:none;stroke-opacity:1" id="path428" d="m 1720,8966 v 53"/><path style="fill:none;stroke:#000;stroke-width:12.5;stroke-linecap:round;stroke-linejoin:round;stroke-miterlimit:10;stroke-dasharray:none;stroke-opacity:1" id="path430" d="m 1720,9019 h 27"/><path style="fill:none;stroke:#000;stroke-width:12.5;stroke-linecap:round;stroke-linejoin:round;stroke-miterlimit:10;stroke-dasharray:none;stroke-opacity:1" id="path432" d="m 1773,9045 v -2 -2 l -1,-2 v -2 l -1,-2 -1,-2 -1,-1 -1,-2 -1,-2 -1,-1 -2,-2 -1,-1 -2,-1 -2,-1 -1,-1 -2,-1 h -2 l -2,-1 h -2 -2 -1"/><path style="fill:none;stroke:#000;stroke-width:12.5;stroke-linecap:round;stroke-linejoin:round;stroke-miterlimit:10;stroke-dasharray:none;stroke-opacity:1" id="path434" d="m 1773,9045 v 13"/><path style="fill:none;stroke:#000;stroke-width:12.5;stroke-linecap:round;stroke-linejoin:round;stroke-miterlimit:10;stroke-dasharray:none;stroke-opacity:1" id="path436" d="m 1747,9084 h 2 2 2 l 2,-1 1,-1 h 2 l 2,-1 2,-1 1,-2 2,-1 1,-1 2,-2 1,-2 1,-1 1,-2 v -2 l 1,-2 v -2 l 1,-2 v -2 -1"/><path style="fill:none;stroke:#000;stroke-width:12.5;stroke-linecap:round;stroke-linejoin:round;stroke-miterlimit:10;stroke-dasharray:none;stroke-opacity:1" id="path438" d="m 1747,9084 h -27"/><path style="fill:none;stroke:#000;stroke-width:12.5;stroke-linecap:round;stroke-linejoin:round;stroke-miterlimit:10;stroke-dasharray:none;stroke-opacity:1" id="path440" d="m 1839,8966 -27,92"/><path style="fill:none;stroke:#000;stroke-width:12.5;stroke-linecap:round;stroke-linejoin:round;stroke-miterlimit:10;stroke-dasharray:none;stroke-opacity:1" id="path442" d="m 1812,9058 h 66"/><path style="fill:none;stroke:#000;stroke-width:12.5;stroke-linecap:round;stroke-linejoin:round;stroke-miterlimit:10;stroke-dasharray:none;stroke-opacity:1" id="path444" d="m 1858,9032 v 52"/><path style="fill:none;stroke:#000;stroke-width:12.5;stroke-linecap:round;stroke-linejoin:round;stroke-miterlimit:10;stroke-dasharray:none;stroke-opacity:1" id="path446" d="m 1957,8973 -2,-2 -1,-1 -2,-1 -1,-1 -2,-1 -2,-1 h -2 -2 -2 l -2,1 -2,1 h -2 l -1,2 -2,1 -1,1 -1,1"/><path style="fill:none;stroke:#000;stroke-width:12.5;stroke-linecap:round;stroke-linejoin:round;stroke-miterlimit:10;stroke-dasharray:none;stroke-opacity:1" id="path448" d="m 1930,8973 -1,2 v 1 l -1,2 -1,2 -1,2 -1,2 v 1 l -1,2 -1,2 v 2 l -1,2 -1,2 v 2 l -1,2 v 2 2 l -1,2 v 2 2 l -1,2 v 2 2 2 2 l -1,2 v 2 2 2 2 2 l 1,2 v 2 2 2 2 l 1,2 v 1 2 l 1,2 v 2 l 1,2 v 2 l 1,2 v 2 l 1,2 v 2 l 1,2 1,2 1,1 v 2 l 1,2 1,2 1,2 1,2 v 1"/><path style="fill:none;stroke:#000;stroke-width:12.5;stroke-linecap:round;stroke-linejoin:round;stroke-miterlimit:10;stroke-dasharray:none;stroke-opacity:1" id="path450" d="m 1930,9078 2,1 1,2 2,1 2,1 h 1 l 2,1 h 2 2 2 2 l 2,-1 2,-1 2,-1 1,-1 1,-2 h 1"/><path style="fill:none;stroke:#000;stroke-width:12.5;stroke-linecap:round;stroke-linejoin:round;stroke-miterlimit:10;stroke-dasharray:none;stroke-opacity:1" id="path452" d="m 1957,9078 1,-2 v -2 l 1,-2 1,-1 1,-2 1,-2 v -2 l 1,-2 1,-2 v -2 l 1,-2 1,-2 v -1 l 1,-2 v -2 -2 l 1,-2 v -2 l 1,-2 v -2 -2 -2 -2 l 1,-2 v -2 -2 -2 -2 -2 -2 -2 l -1,-2 v -2 -2 -2 l -1,-2 v -2 -2 l -1,-2 v -2 l -1,-2 v -2 l -1,-2 v -2 l -1,-2 v -1 l -1,-2 -1,-2 -1,-2 v -2 l -1,-2 -1,-2 -1,-1 -1,-2 v -1"/><path style="fill:none;stroke:#000;stroke-width:12.5;stroke-linecap:round;stroke-linejoin:round;stroke-miterlimit:10;stroke-dasharray:none;stroke-opacity:1" id="path454" d="m 2049,8973 -2,-2 -1,-1 -2,-1 -2,-1 -1,-1 -2,-1 h -2 -2 -2 l -2,1 -2,1 h -2 l -2,2 -1,1 -1,1 -1,1"/><path style="fill:none;stroke:#000;stroke-width:12.5;stroke-linecap:round;stroke-linejoin:round;stroke-miterlimit:10;stroke-dasharray:none;stroke-opacity:1" id="path456" d="m 2022,8973 -1,2 -1,1 v 2 l -1,2 -1,2 -1,2 -1,1 v 2 l -1,2 -1,2 v 2 l -1,2 v 2 l -1,2 v 2 l -1,2 v 2 2 l -1,2 v 2 2 2 l -1,2 v 2 2 2 2 2 2 2 2 l 1,2 v 2 2 2 2 l 1,1 v 2 l 1,2 v 2 2 l 1,2 1,2 v 2 l 1,2 v 2 l 1,2 1,2 v 1 l 1,2 1,2 1,2 1,2 1,2 v 1"/><path style="fill:none;stroke:#000;stroke-width:12.5;stroke-linecap:round;stroke-linejoin:round;stroke-miterlimit:10;stroke-dasharray:none;stroke-opacity:1" id="path458" d="m 2022,9078 2,1 1,2 2,1 1,1 h 2 l 2,1 h 2 2 2 2 l 2,-1 2,-1 1,-1 2,-1 1,-2 h 1"/><path style="fill:none;stroke:#000;stroke-width:12.5;stroke-linecap:round;stroke-linejoin:round;stroke-miterlimit:10;stroke-dasharray:none;stroke-opacity:1" id="path460" d="m 2049,9078 v -2 l 1,-2 1,-2 1,-1 1,-2 1,-2 v -2 l 1,-2 1,-2 v -2 l 1,-2 v -2 l 1,-1 v -2 l 1,-2 v -2 l 1,-2 v -2 -2 l 1,-2 v -2 -2 -2 -2 l 1,-2 v -2 -2 -2 -2 -2 l -1,-2 v -2 -2 -2 -2 l -1,-2 v -2 -2 l -1,-2 v -2 l -1,-2 v -2 l -1,-2 v -2 l -1,-2 -1,-1 v -2 l -1,-2 -1,-2 v -2 l -1,-2 -1,-2 -1,-1 -1,-2 v -1"/><path style="fill:none;stroke:#000;stroke-width:12.5;stroke-linecap:round;stroke-linejoin:round;stroke-miterlimit:10;stroke-dasharray:none;stroke-opacity:1" id="path462" d="M 1410,8874 H 901"/><path style="fill:none;stroke:#000;stroke-width:12.5;stroke-linecap:round;stroke-linejoin:round;stroke-miterlimit:10;stroke-dasharray:none;stroke-opacity:1" id="path464" d="M 1410,8754 H 901"/><path style="fill:none;stroke:#000;stroke-width:12.5;stroke-linecap:round;stroke-linejoin:round;stroke-miterlimit:10;stroke-dasharray:none;stroke-opacity:1" id="path466" d="M 960,9110 V 8518"/><path style="fill:#000;fill-opacity:1;fill-rule:nonzero;stroke:#000;stroke-width:12.5;stroke-linecap:round;stroke-linejoin:round;stroke-miterlimit:10;stroke-dasharray:none;stroke-opacity:1" id="path468" d="m 960,8874 20,118 h -40 z"/><path style="fill:#000;fill-opacity:1;fill-rule:nonzero;stroke:#000;stroke-width:12.5;stroke-linecap:round;stroke-linejoin:round;stroke-miterlimit:10;stroke-dasharray:none;stroke-opacity:1" id="path470" d="m 960,8754 -20,-118 h 40 z"/><path style="fill:none;stroke:#000;stroke-width:12.5;stroke-linecap:round;stroke-linejoin:round;stroke-miterlimit:10;stroke-dasharray:none;stroke-opacity:1" id="path472" d="m 832,8724 -7,-3"/><path style="fill:none;stroke:#000;stroke-width:12.5;stroke-linecap:round;stroke-linejoin:round;stroke-miterlimit:10;stroke-dasharray:none;stroke-opacity:1" id="path474" d="m 852,8675 -2,-1 h -2 l -2,-1 -2,-1 h -2 -2 -2 -2 -2 l -2,1 h -2 l -2,1 -1,1 -2,1 -2,1 -1,1 -2,1 -1,2 -1,1 -2,2 -1,2 -1,1 v 2 l -1,2 v 2 l -1,2 v 2 2 2 l 1,2 v 2 l 1,2 1,2 v 2 l 1,1 2,2 1,1 1,2 2,1 1,1 2,2"/><path style="fill:none;stroke:#000;stroke-width:12.5;stroke-linecap:round;stroke-linejoin:round;stroke-miterlimit:10;stroke-dasharray:none;stroke-opacity:1" id="path476" d="m 852,8675 78,49"/><path style="fill:none;stroke:#000;stroke-width:12.5;stroke-linecap:round;stroke-linejoin:round;stroke-miterlimit:10;stroke-dasharray:none;stroke-opacity:1" id="path478" d="m 930,8724 v -52"/><path style="fill:none;stroke:#000;stroke-width:12.5;stroke-linecap:round;stroke-linejoin:round;stroke-miterlimit:10;stroke-dasharray:none;stroke-opacity:1" id="path480" d="m 930,8632 h -6"/><path style="fill:none;stroke:#000;stroke-width:12.5;stroke-linecap:round;stroke-linejoin:round;stroke-miterlimit:10;stroke-dasharray:none;stroke-opacity:1" id="path482" d="m 812,8541 v 52"/><path style="fill:none;stroke:#000;stroke-width:12.5;stroke-linecap:round;stroke-linejoin:round;stroke-miterlimit:10;stroke-dasharray:none;stroke-opacity:1" id="path484" d="m 812,8593 h 53"/><path style="fill:none;stroke:#000;stroke-width:12.5;stroke-linecap:round;stroke-linejoin:round;stroke-miterlimit:10;stroke-dasharray:none;stroke-opacity:1" id="path486" d="m 865,8593 v -26"/><path style="fill:none;stroke:#000;stroke-width:12.5;stroke-linecap:round;stroke-linejoin:round;stroke-miterlimit:10;stroke-dasharray:none;stroke-opacity:1" id="path488" d="m 891,8541 h -2 -2 -2 l -2,1 -2,1 h -2 l -1,1 -2,1 -2,2 -1,1 -2,1 -1,2 -1,1 -1,2 -1,2 -1,2 v 2 l -1,2 v 2 2 1"/><path style="fill:none;stroke:#000;stroke-width:12.5;stroke-linecap:round;stroke-linejoin:round;stroke-miterlimit:10;stroke-dasharray:none;stroke-opacity:1" id="path490" d="m 891,8541 h 13"/><path style="fill:none;stroke:#000;stroke-width:12.5;stroke-linecap:round;stroke-linejoin:round;stroke-miterlimit:10;stroke-dasharray:none;stroke-opacity:1" id="path492" d="m 930,8567 v -2 -2 -2 l -1,-2 -1,-2 v -2 l -1,-1 -1,-2 -2,-2 -1,-1 -1,-2 -2,-1 -2,-1 -1,-1 -2,-1 -2,-1 h -2 l -2,-1 h -2 -2 -1"/><path style="fill:none;stroke:#000;stroke-width:12.5;stroke-linecap:round;stroke-linejoin:round;stroke-miterlimit:10;stroke-dasharray:none;stroke-opacity:1" id="path494" d="m 930,8567 v 26"/><path style="fill:none;stroke:#000;stroke-width:12.5;stroke-linecap:round;stroke-linejoin:round;stroke-miterlimit:10;stroke-dasharray:none;stroke-opacity:1" id="path496" d="m 812,8475 92,26"/><path style="fill:none;stroke:#000;stroke-width:12.5;stroke-linecap:round;stroke-linejoin:round;stroke-miterlimit:10;stroke-dasharray:none;stroke-opacity:1" id="path498" d="m 904,8501 v -65"/><path style="fill:none;stroke:#000;stroke-width:12.5;stroke-linecap:round;stroke-linejoin:round;stroke-miterlimit:10;stroke-dasharray:none;stroke-opacity:1" id="path500" d="m 878,8455 h 52"/><path style="fill:none;stroke:#000;stroke-width:12.5;stroke-linecap:round;stroke-linejoin:round;stroke-miterlimit:10;stroke-dasharray:none;stroke-opacity:1" id="path502" d="m 819,8357 -2,1 -1,2 -1,1 -1,2 -1,2 v 2 l -1,2 v 2 2 l 1,2 1,2 1,1 1,2 1,2 1,1 h 1"/><path style="fill:none;stroke:#000;stroke-width:12.5;stroke-linecap:round;stroke-linejoin:round;stroke-miterlimit:10;stroke-dasharray:none;stroke-opacity:1" id="path504" d="m 819,8383 2,1 1,1 2,1 2,1 h 2 l 2,1 2,1 1,1 h 2 l 2,1 2,1 h 2 l 2,1 h 2 l 2,1 h 2 2 l 2,1 h 2 2 l 2,1 h 2 2 2 2 2 2 2 2 2 2 2 2 l 2,-1 h 2 2 2 l 2,-1 h 1 l 2,-1 h 2 l 2,-1 h 2 l 2,-1 h 2 l 2,-1 2,-1 h 2 l 2,-1 1,-1 2,-1 h 2 l 2,-1 2,-1 1,-1"/><path style="fill:none;stroke:#000;stroke-width:12.5;stroke-linecap:round;stroke-linejoin:round;stroke-miterlimit:10;stroke-dasharray:none;stroke-opacity:1" id="path506" d="m 924,8383 1,-1 2,-2 1,-1 1,-2 1,-2 v -2 -2 -2 -2 -2 l -1,-2 -1,-1 -1,-2 -1,-1 -2,-2"/><path style="fill:none;stroke:#000;stroke-width:12.5;stroke-linecap:round;stroke-linejoin:round;stroke-miterlimit:10;stroke-dasharray:none;stroke-opacity:1" id="path508" d="m 924,8357 -2,-1 -2,-1 -2,-1 -1,-1 h -2 l -2,-1 -2,-1 -2,-1 h -2 l -2,-1 h -2 l -1,-1 -2,-1 h -2 -2 l -2,-1 h -2 l -2,-1 h -2 -2 -2 l -2,-1 h -2 -2 -2 -2 -2 -2 -2 -2 -2 -2 -2 l -2,1 h -2 -2 -2 l -2,1 h -2 l -2,1 h -2 l -2,1 h -2 l -2,1 h -1 l -2,1 -2,1 h -2 l -2,1 -2,1 -2,1 -1,1 h -2 l -2,1 -1,1"/><path style="fill:none;stroke:#000;stroke-width:12.5;stroke-linecap:round;stroke-linejoin:round;stroke-miterlimit:10;stroke-dasharray:none;stroke-opacity:1" id="path510" d="m 819,8265 -2,1 -1,2 -1,1 -1,2 -1,2 v 2 l -1,2 v 2 2 l 1,2 1,2 1,2 1,1 1,2 1,1 h 1"/><path style="fill:none;stroke:#000;stroke-width:12.5;stroke-linecap:round;stroke-linejoin:round;stroke-miterlimit:10;stroke-dasharray:none;stroke-opacity:1" id="path512" d="m 819,8291 2,1 1,1 2,1 2,1 2,1 h 2 l 2,1 1,1 h 2 l 2,1 2,1 h 2 l 2,1 h 2 l 2,1 h 2 l 2,1 h 2 2 2 l 2,1 h 2 2 2 2 2 2 2 2 2 2 2 2 2 l 2,-1 h 2 2 l 2,-1 h 1 2 l 2,-1 h 2 l 2,-1 2,-1 h 2 l 2,-1 h 2 l 2,-1 2,-1 1,-1 h 2 l 2,-1 2,-1 2,-1 1,-1"/><path style="fill:none;stroke:#000;stroke-width:12.5;stroke-linecap:round;stroke-linejoin:round;stroke-miterlimit:10;stroke-dasharray:none;stroke-opacity:1" id="path514" d="m 924,8291 1,-1 2,-1 1,-2 1,-2 1,-2 v -2 -2 -2 -2 -2 l -1,-1 -1,-2 -1,-2 -1,-1 -2,-2"/><path style="fill:none;stroke:#000;stroke-width:12.5;stroke-linecap:round;stroke-linejoin:round;stroke-miterlimit:10;stroke-dasharray:none;stroke-opacity:1" id="path516" d="m 924,8265 -2,-1 -2,-1 -2,-1 h -1 l -2,-1 -2,-1 -2,-1 h -2 l -2,-1 -2,-1 h -2 l -1,-1 h -2 l -2,-1 h -2 l -2,-1 h -2 -2 l -2,-1 h -2 -2 l -2,-1 h -2 -2 -2 -2 -2 -2 -2 -2 -2 -2 l -2,1 h -2 -2 -2 l -2,1 h -2 -2 l -2,1 h -2 l -2,1 h -2 l -2,1 -1,1 h -2 l -2,1 -2,1 h -2 l -2,1 -2,1 -1,1 -2,1 h -2 l -1,1"/></g></g></g></g></svg>